<svg width="53" height="50" viewBox="0 0 53 50" fill="none" xmlns="http://www.w3.org/2000/svg">
<path d="M0.217876 21.2535C0.361874 19.7085 2.3668 18.4653 4.87634 18.3643C9.56804 18.1765 14.1933 18.0661 18.7853 17.9933C18.8136 13.3384 18.9047 8.85725 19.0782 4.61559C19.1693 2.2218 20.453 0.272961 22.0726 0.135603C24.5785 -0.0804128 27.2123 -0.0252345 29.9237 0.208391C31.5446 0.345749 32.8468 2.2535 32.9526 4.64846C33.1496 9.14723 33.2653 13.572 33.3428 17.9745C38.0296 18.0344 42.6794 18.1401 47.2419 18.342C49.7219 18.4512 51.7317 19.6487 51.9188 21.176C52.2363 23.8222 52.3139 26.344 52.0345 28.6967C51.8523 30.2558 49.765 31.4661 47.2271 31.5354C42.5108 31.654 37.8905 31.7467 33.3613 31.8101C33.2997 36.2772 33.189 40.7114 32.9773 45.0634C32.8616 47.4302 31.6062 49.3473 30.0062 49.5211C27.232 49.8287 24.5871 49.8968 22.1207 49.6361C20.4862 49.4612 19.2123 47.4713 19.1459 45.0505C19.0203 40.5693 18.9243 36.1809 18.8567 31.8794C13.9816 31.8477 9.28495 31.7643 4.83695 31.6035C2.32741 31.5119 0.289265 30.2874 0.140343 28.7425C-0.0861206 26.3534 -0.0233574 23.8398 0.217876 21.2535Z" fill="#F25454"/>
</svg>
