<svg width="317" height="207" viewBox="0 0 317 207" fill="none" xmlns="http://www.w3.org/2000/svg">
<path d="M75.4855 81.6071C82.4122 73.8845 90.5858 68.6144 99.6344 65.9964C108.725 63.2727 118.495 63.5381 128.457 66.6198C128.457 66.6198 125.6 64.9093 121.322 62.3417C117.081 59.7049 111.279 56.4436 105.418 53.2703C99.5815 50.0558 93.7439 46.8402 89.3649 44.4289C87.1962 43.1903 85.3267 42.2687 84.0135 41.6265C82.7064 40.9796 81.9556 40.6087 81.9556 40.6087C74.7495 48.6341 66.2448 54.1507 57.1248 57.0587C52.5575 58.5075 47.8362 59.3011 43.0092 59.4114C38.139 59.6721 33.1384 59.3833 28.0861 58.3337C34.2781 50.0464 41.9322 44.0802 50.7396 40.6815C59.4559 37.4811 69.1815 37.0867 79.4276 39.3478C79.4276 39.3478 72.7642 36.0406 66.1046 32.7299C62.7642 31.1016 59.4756 29.3641 56.923 28.2359C54.3593 27.117 52.6584 26.3692 52.6584 26.3692C41.7439 27.7862 31.9851 26.2683 23.1913 22.6406C14.3113 19.2513 6.57102 13.2392 -6.10352e-05 4.62675C10.5476 2.32923 20.9894 3.02188 30.3162 6.34665C39.5236 9.89683 47.3451 16.551 53.2639 25.1588C53.2639 25.1588 54.1144 25.5345 55.6098 26.1861C57.115 26.8235 59.2442 27.7545 61.7255 29.0377C66.7199 31.5196 73.3845 34.8302 80.043 38.1409C86.7692 41.3377 93.2258 45.0018 98.1046 47.6891C102.98 50.3763 106.235 52.1702 106.235 52.1702C98.7113 45.2307 93.8411 36.866 91.2208 28.1619C88.6153 19.445 88.5661 9.87804 91.3698 0C95.9605 3.48561 99.8313 7.29641 102.927 11.3502C105.99 15.4404 108.134 19.9627 109.586 24.5307C112.457 33.729 112.172 43.553 108.711 53.5367C108.711 53.5367 111.629 55.151 116.009 57.5718C120.298 60.144 126.013 63.5698 131.73 66.9955C143.259 73.7002 154.351 81.0518 154.351 81.0518C150.86 77.3103 148.023 73.3104 145.826 69.1193C143.552 65.029 141.937 60.7275 140.98 56.2698C139.077 47.3498 139.807 37.7969 143.388 28.1443C151.817 35.7424 157.385 44.3373 159.59 53.633C161.769 62.9874 160.821 72.7974 156.72 82.5745C156.72 82.5745 159.519 84.3766 163.716 87.0779C167.956 89.7194 173.428 93.4892 178.913 97.2401C184.399 100.987 189.889 104.734 194.004 107.549C198.048 110.452 200.74 112.392 200.74 112.392C187.625 96.8186 184.528 78.0252 192.898 59.0581C200.783 67.0507 205.687 76.0024 207.433 85.3075C209.153 94.6491 207.615 104.477 203.028 114.034C203.028 114.034 205.721 115.969 209.764 118.877C213.831 121.757 219.191 125.664 224.461 129.686C229.754 133.675 235.052 137.666 239.024 140.66C242.937 143.723 245.547 145.764 245.547 145.764C233.129 129.677 231.033 110.7 240.288 92.2189C255.322 108.742 257.903 128.719 247.759 147.493C247.759 147.493 252.187 150.969 258.826 156.183C265.36 161.517 274.177 168.51 282.745 175.78C291.393 182.961 299.874 190.33 306.177 195.911C312.5 201.474 316.61 205.299 316.61 205.299L315.625 206.261C315.625 206.261 303.966 195.548 291.86 185.281C285.865 180.089 279.706 175.068 275.163 171.226C270.543 167.461 267.466 164.952 267.466 164.952C258.672 171.335 249.133 174.94 239.466 175.765C229.711 176.692 219.85 174.798 210.263 170.148C226.558 157.05 246.412 154.4 265.287 163.186C265.287 163.186 255.042 154.826 244.562 146.731C239.38 142.617 234.101 138.614 230.114 135.652C226.144 132.662 223.494 130.672 223.494 130.672C206.518 144.031 186.091 146.709 166.634 138.238C182.321 124.403 201.947 121.037 221.249 128.984C221.249 128.984 218.596 127.008 214.61 124.04C210.571 121.138 205.186 117.267 199.802 113.397C194.457 109.48 188.976 105.734 184.85 102.946C180.74 100.139 178 98.2673 178 98.2673C169.826 105.381 160.72 109.687 151.163 111.41C141.557 113.199 131.586 112.287 121.716 108.494C129.163 101.239 137.687 96.5157 146.874 94.48C156.028 92.4795 165.97 92.9843 175.673 96.6812C175.673 96.6812 172.932 94.8099 168.821 92.0029C164.634 89.3015 159.047 85.702 153.466 82.1025C142.379 74.7732 130.874 68.0685 130.874 68.0685C123.125 75.581 114.245 80.4648 104.884 82.6473C95.547 84.744 85.4756 84.744 75.4855 81.6071Z" fill="#E7E4E2"/>
</svg>
