<svg width="222" height="241" viewBox="0 0 222 241" fill="none" xmlns="http://www.w3.org/2000/svg">
<path d="M41.8855 97.5383C51.2356 92.6685 60.8418 90.5178 70.2744 91.1318C79.7883 91.6683 88.8172 95.2266 96.9809 101.483C96.9809 101.483 94.9526 98.9142 91.9039 95.067C88.9279 91.1681 84.7162 86.1516 80.4184 81.1985C76.1587 76.2137 71.9039 71.2289 68.7113 67.4956C67.1396 65.602 65.7353 64.1074 64.7507 63.0614C63.7698 62.0107 63.2122 61.4108 63.2122 61.4108C53.4768 66.4683 43.4806 68.7483 33.8707 68.3679C29.0584 68.1789 24.3469 67.3172 19.7882 65.7851C15.1494 64.3775 10.5869 62.4145 6.24971 59.7226C15.1248 54.0733 24.5045 51.0925 33.995 50.8999C43.3464 50.8577 52.5772 53.7927 61.3132 59.3739C61.3132 59.3739 56.3175 54.0275 51.323 48.6752C48.8123 46.0196 46.39 43.2818 44.4184 41.3612C42.438 39.4487 41.1199 38.1738 41.1199 38.1738C30.3999 35.7929 21.8325 31.0699 14.966 24.6998C7.92851 18.5222 2.94263 10.2772 -0.000137329 0C10.7211 1.42641 20.2215 5.6129 27.7021 11.8821C34.9759 18.3214 39.8178 27.1898 42.1403 37.2475C42.1403 37.2475 42.7938 37.885 43.9519 38.9991C45.1199 40.1038 46.7692 41.7005 48.6018 43.7362C52.347 47.7536 57.3415 53.1059 62.3372 58.457C67.4325 63.7259 72.1008 69.3399 75.6639 73.5041C79.2221 77.6671 81.5913 80.4472 81.5913 80.4472C77.1494 71.4074 75.7119 61.9379 76.5008 52.9169C77.3181 43.883 80.8319 34.9218 87.1297 26.6439C90.1304 31.455 92.3273 36.3294 93.707 41.1686C95.0485 46.029 95.371 50.9821 95.0239 55.7474C94.2793 65.3178 90.3556 74.407 83.4042 82.5604C83.4042 82.5604 85.5285 85.0598 88.7162 88.8119C91.7697 92.6638 95.8375 97.8048 99.9039 102.946C108.183 113.122 115.813 123.751 115.813 123.751C113.942 119.069 112.779 114.369 112.289 109.709C111.687 105.114 111.78 100.547 112.549 96.0531C114.087 87.0685 118.332 78.388 125.274 70.5821C130.322 80.5387 132.327 90.4579 130.923 99.9004C129.477 109.379 124.933 118.23 117.462 125.981C117.462 125.981 119.404 128.613 122.327 132.556C125.303 136.463 129.015 141.843 132.746 147.209C136.476 152.574 140.207 157.935 143.01 161.957C145.702 166.044 147.5 168.767 147.5 168.767C141.044 149.767 145.149 131.153 160.039 116.258C164.433 126.402 165.679 136.432 163.841 145.723C161.977 155.033 156.875 163.7 149.024 171.079C149.024 171.079 150.822 173.803 153.52 177.889C156.25 181.956 159.803 187.428 163.226 192.976C166.693 198.498 170.159 204.024 172.756 208.17C175.274 212.357 176.953 215.15 176.953 215.15C171.337 195.902 176.453 177.457 191.981 163.315C199.881 183.855 194.857 203.4 178.375 217.515C178.375 217.515 181.217 222.266 185.481 229.389C189.601 236.589 195.241 246.114 200.544 255.813C205.952 265.457 211.135 275.221 214.948 282.572C218.784 289.913 221.202 294.885 221.202 294.885L219.924 295.449C219.924 295.449 213.015 281.485 205.525 267.782C201.851 260.899 197.972 254.121 195.154 248.984C192.236 243.903 190.294 240.514 190.294 240.514C179.697 243.504 169.437 243.637 160.096 241.138C150.625 238.694 142.121 233.58 134.89 225.981C155.001 219.268 174.549 223.514 188.918 238.125C188.918 238.125 182.457 226.839 175.674 215.718C172.356 210.119 168.918 204.588 166.294 200.465C163.692 196.329 161.962 193.568 161.962 193.568C141.12 200.3 121.024 195.884 105.991 181.369C125.808 173.757 145.409 177.256 160.491 191.229C160.491 191.229 158.746 188.482 156.125 184.359C153.433 180.278 149.841 174.834 146.25 169.391C142.711 163.915 138.981 158.559 136.169 154.551C133.371 150.538 131.505 147.859 131.505 147.859C121.217 151.735 111.101 152.675 101.525 151.052C91.8806 149.465 82.8996 145.232 75.0817 138.344C84.7507 134.084 94.4763 132.561 103.823 133.771C113.125 135.001 122.231 138.84 129.924 145.585C129.924 145.585 128.058 142.907 125.26 138.89C122.351 134.95 118.471 129.691 114.592 124.43C106.962 113.828 98.7027 103.656 98.7027 103.656C88.6584 108.054 78.5439 109.613 68.9809 108.476C59.4769 107.274 50.0528 103.858 41.8855 97.5383Z" fill="#A4B5B3"/>
</svg>
