<svg width="222" height="289" viewBox="0 0 222 289" fill="none" xmlns="http://www.w3.org/2000/svg">
<path d="M179.948 98.1873V98.1826C170.591 93.3129 160.991 91.1621 151.564 91.7761C142.044 92.3126 133.02 95.8722 124.851 102.127C124.851 102.127 126.885 99.5632 129.928 95.716C132.904 91.8137 137.116 86.796 141.413 81.8429C145.673 76.8581 149.928 71.878 153.125 68.14C154.693 66.2463 156.096 64.7518 157.087 63.7058C158.063 62.6562 158.626 62.0551 158.626 62.0551C168.351 67.1127 178.356 69.3926 187.967 69.0169C192.775 68.8232 197.486 67.9615 202.039 66.4294C206.688 65.0218 211.256 63.0589 215.582 60.3669C206.712 54.7176 197.332 51.7368 187.837 51.549C178.49 51.5067 169.26 54.4382 160.525 60.0229C160.525 60.0229 165.514 54.6718 170.505 49.3196C173.024 46.664 175.453 43.9262 177.418 42.0055C179.395 40.0931 180.712 38.8181 180.712 38.8181C191.438 36.4419 199.996 31.7143 206.866 25.3441C213.904 19.1677 218.895 10.9262 221.837 0.644348C211.116 2.07076 201.612 6.25724 194.135 12.5264C186.851 18.9658 182.02 27.8342 179.693 37.8918C179.693 37.8918 179.034 38.5293 177.88 39.6434C176.717 40.7482 175.068 42.3448 173.226 44.3852C169.486 48.398 164.49 53.7502 159.496 59.1013C154.399 64.3702 149.731 69.9843 146.174 74.1485C142.611 78.3127 140.24 81.0915 140.24 81.0915C144.688 72.0564 146.126 62.5822 145.332 53.5612C144.52 44.5273 141 35.5708 134.702 27.2894C131.708 32.104 129.511 36.9749 128.13 41.8177C126.784 46.678 126.467 51.6311 126.808 56.3964C127.559 65.9622 131.476 75.0513 138.434 83.2047C138.434 83.2047 136.308 85.7089 133.116 89.4563C130.063 93.3129 125.996 98.4491 121.928 103.59C113.65 113.766 106.025 124.396 106.025 124.396C107.89 119.718 109.053 115.018 109.549 110.353C110.144 105.763 110.053 101.192 109.289 96.6975C107.746 87.7176 103.506 79.0323 96.558 71.2264C91.5106 81.1831 89.5106 91.1022 90.9088 100.545C92.3562 110.024 96.899 118.874 104.376 126.625C104.376 126.625 102.429 129.257 99.5106 133.201C96.5297 137.109 92.8227 142.488 89.0922 147.853C85.3605 153.219 81.6251 158.58 78.8276 162.601C76.1297 166.693 74.3328 169.416 74.3328 169.416C80.7943 150.413 76.6885 131.798 61.7986 116.903C57.4048 127.047 56.1593 137.076 57.9906 146.367C59.8614 155.682 64.9617 164.345 72.8079 171.723C72.8079 171.723 71.0097 174.447 68.3131 178.534C65.5869 182.601 62.0288 188.077 58.606 193.621C55.1402 199.147 51.6731 204.668 49.0774 208.815C46.558 213.001 44.8805 215.794 44.8805 215.794C50.5002 196.551 45.3851 178.103 29.8516 163.964C21.9574 184.504 26.9814 204.049 43.4577 218.161C43.4577 218.161 40.6159 222.911 36.3513 230.033C32.2319 237.234 26.5913 246.758 21.294 256.462C15.8799 266.106 10.702 275.865 6.88541 283.221C3.05279 290.562 0.630638 295.53 0.630638 295.53L1.90941 296.093C1.90941 296.093 8.81772 282.13 16.3082 268.431C19.9808 261.548 23.8663 254.765 26.6836 249.633C29.5968 244.548 31.539 241.158 31.539 241.158C42.1346 244.148 52.3943 244.282 61.7408 241.783C71.2066 239.338 79.7125 234.225 86.9482 226.63C66.8374 219.912 47.2891 224.159 32.9186 238.769C32.9186 238.769 39.3802 227.483 46.1642 216.367C49.4762 210.763 52.9186 205.233 55.5439 201.11C58.1396 196.974 59.8749 194.217 59.8749 194.217C80.7119 200.945 100.813 196.529 115.842 182.014C96.0251 174.401 76.4288 177.905 61.342 191.878C61.342 191.878 63.0922 189.131 65.7125 185.003C68.4042 180.923 71.9956 175.479 75.587 170.035C79.1254 164.564 82.8509 159.204 85.6682 155.2C88.4669 151.183 90.3328 148.505 90.3328 148.505C100.621 152.379 110.732 153.324 120.313 151.696C129.952 150.11 138.933 145.876 146.75 138.989C137.082 134.728 127.357 133.205 118.015 134.417C108.712 135.645 99.6017 139.489 91.9094 146.23C91.9094 146.23 93.774 143.557 96.5728 139.539C99.4811 135.594 103.365 130.335 107.246 125.079C114.876 114.472 123.13 104.305 123.13 104.305C133.173 108.698 143.294 110.257 152.856 109.121C162.361 107.919 171.774 104.502 179.948 98.1873Z" fill="#A4B5B3"/>
</svg>
