<svg width="383" height="241" viewBox="0 0 383 241" fill="none" xmlns="http://www.w3.org/2000/svg">
<path d="M425.203 246.233V43.8648C422.838 38.7251 420.169 33.5923 417.121 28.4655C402.255 3.47689 381.809 -3.78197 352.198 1.72996C331.78 5.52668 312.598 16.189 300.198 32.2716C282.684 54.9861 279.097 84.4277 270.987 111.545C262.881 138.662 246.189 167.3 217.443 173.895C192.852 179.536 168.011 167.113 146.51 154.391C125.015 141.674 101.823 127.659 76.6308 129.833C53.7509 131.806 34.1841 147.232 21.5207 165.517C5.15021 189.161 -1.17224 217.961 1.41977 246.233H425.203Z" fill="#F1F1F0"/>
</svg>
