<svg width="83" height="79" viewBox="0 0 83 79" fill="none" xmlns="http://www.w3.org/2000/svg">
<path d="M40.446 4.93368C42.4903 4.93368 44.6626 5.03465 47.0085 5.23541C47.9316 5.31406 49.331 6.96941 49.4516 9.76705C49.7445 16.4072 49.918 22.9511 50.0325 29.4503L50.067 31.5318L52.2491 31.5588C60.2442 31.6598 66.7636 31.8394 72.7636 32.1048C75.6916 32.2339 77.4614 33.5453 77.5623 34.4023C78.0473 38.4291 78.1051 41.9147 77.7346 45.0598C77.6288 45.9544 75.8122 47.2846 72.7882 47.3621C65.8122 47.5417 58.9753 47.679 52.2836 47.7659L50.0953 47.7976L50.062 49.885C49.9513 57.5383 49.7691 63.7523 49.4897 69.4485C49.3556 72.2415 47.9759 73.9285 47.0811 74.0248C42.851 74.4885 39.2017 74.5484 35.9082 74.1903C34.9519 74.0893 33.571 72.2462 33.4946 69.4708C33.3125 62.8448 33.1623 56.3467 33.0663 49.9859L33.038 47.8857L30.8313 47.8716C23.1537 47.8258 16.3796 47.6931 10.1334 47.463C7.28295 47.3574 5.41342 46.0601 5.33096 45.1749C5.02819 41.9875 5.06634 38.4843 5.44173 34.4668C5.52788 33.591 7.26327 32.2562 10.1913 32.1376C17.134 31.857 23.966 31.6974 30.7537 31.5917L32.9519 31.5541L32.9605 29.4539C33.0134 22.1715 33.1488 15.7098 33.3888 9.70718C33.4996 6.9882 34.8596 5.20371 35.7876 5.12622C37.2682 4.99708 38.8116 4.93368 40.446 4.93368ZM40.3894 78.7114C42.6343 78.7114 45.0183 78.5693 47.5906 78.2852C51.0713 77.9095 53.7593 74.2725 53.9808 69.6504C54.2393 64.4308 54.4177 58.7909 54.5285 52.0264C60.5433 51.9395 66.6725 51.8103 72.9125 51.6507C77.8934 51.5215 81.8023 48.954 82.206 45.5424C82.6146 42.0661 82.5568 38.2589 82.0325 33.9115C81.6337 30.5962 77.822 28.0321 72.9753 27.8173C67.4799 27.5743 61.5574 27.4087 54.4903 27.2984C54.3796 21.4472 54.2159 15.5584 53.9513 9.58861C53.7396 4.89261 50.99 1.26494 47.4085 0.962048C42.9223 0.576976 38.99 0.544111 35.3839 0.851699C31.8171 1.15929 29.086 4.80924 28.8891 9.54164C28.6774 15.0137 28.5383 20.8508 28.4805 27.336C22.3796 27.4451 16.2356 27.6013 10.0042 27.8537C5.08604 28.0462 1.28296 30.6701 0.960503 34.0818V34.0865C0.561729 38.3598 0.523575 42.1166 0.85096 45.5647C1.17219 48.9669 5.00849 51.5673 9.96111 51.7516C15.6534 51.9571 21.7691 52.0909 28.6048 52.1461C28.6971 57.8506 28.8362 63.6701 28.995 69.5859C29.139 74.3464 31.8356 78.0739 35.4036 78.4554C36.995 78.6245 38.6479 78.7114 40.3894 78.7114Z" fill="#F25454"/>
</svg>
