<svg width="362" height="292" viewBox="0 0 362 292" fill="none" xmlns="http://www.w3.org/2000/svg">
<path d="M299.104 287.597C277.681 292.954 254.152 292.527 234.162 283.42C214.176 274.317 198.412 255.789 196.243 234.762C191.946 193.068 238.503 156.636 230.138 115.5C225.898 94.6714 206.113 77.6343 183.955 75.7406C146.536 72.5438 116.056 107.361 78.5844 109.974C43.041 112.46 11.1949 83.2613 2.88718 50.2014C-0.843292 35.3844 -0.742401 19.9251 1.95053 4.95663C2.24838 3.2872 2.58441 1.63656 2.93518 0H361.224V251.73C344.128 268.726 323.013 281.617 299.104 287.597Z" fill="#F1F1F0"/>
</svg>
