<svg width="643" height="534" viewBox="0 0 643 534" fill="none" xmlns="http://www.w3.org/2000/svg">
<path d="M596.922 479.065C596.922 488.581 552.225 496.294 497.085 496.294C441.941 496.294 397.244 488.581 397.244 479.065C397.244 469.549 441.941 461.835 497.085 461.835C552.225 461.835 596.922 469.549 596.922 479.065Z" fill="#1D383D"/>
<path d="M487.96 475.768H506.21L500.128 5.41565H487.96V475.768Z" fill="#1D383D"/>
<path d="M531.171 30.0051H607.133C607.133 30.0051 620.339 127.663 569.152 127.663C517.965 127.663 531.171 30.0051 531.171 30.0051Z" fill="#DBDCD9"/>
<path d="M569.157 127.663C570.369 127.663 571.522 127.608 572.662 127.502C544.743 108.559 542.97 52.6551 543.436 30.0051H531.172C531.172 30.0051 517.956 127.663 569.157 127.663Z" fill="#A4B5B3"/>
<path d="M540.172 77.3466C542.301 96.194 549.302 115.565 569.075 115.565C589.35 115.565 596.195 95.2079 598.133 75.9249L540.172 77.3466Z" fill="#F25454"/>
<path d="M595.254 63.9418H543.051L540.253 50.408H598.052L595.254 63.9418Z" fill="white"/>
<path d="M572.124 27.6618C572.124 26.057 570.758 24.7597 569.08 24.7597C567.398 24.7597 566.037 26.057 566.037 27.6618C566.037 29.2632 567.398 30.5651 569.08 30.5651C570.758 30.5651 572.124 29.2632 572.124 27.6618ZM579.09 35.4584L559.214 35.9444C559.883 29.3313 563.138 18.8298 569.181 18.8298C575.219 18.8298 578.354 28.992 579.09 35.4584Z" fill="#DBDCD9"/>
<path d="M586.435 15.0871L415.464 15.4721V0L586.435 5.41566V15.0871Z" fill="#1D383D"/>
<path d="M568.725 5.1491C568.743 4.00328 566.879 4.10894 566.859 5.24654C566.753 11.9466 567.143 18.6419 568.027 25.2867C568.177 26.4196 570.042 26.3281 569.893 25.1905C569.003 18.5456 568.619 11.8491 568.725 5.1491Z" fill="#F1F1F0"/>
<path d="M540.167 77.3466C542.296 96.1846 549.297 115.574 569.08 115.574C576.268 115.574 581.754 113.024 585.956 108.86C556.354 112.144 540.167 77.3466 540.167 77.3466Z" fill="#E33A3B"/>
<path d="M575.22 85.4214C575.33 85.4214 575.451 85.4131 575.57 85.3991C578.383 85.0363 577.936 81.0283 575.311 81.0283C575.196 81.0283 575.08 81.0377 574.96 81.0517C572.143 81.4086 572.594 85.4214 575.22 85.4214Z" fill="#F35E69"/>
<path d="M562.445 89.811C562.556 89.811 562.677 89.8063 562.796 89.7875C565.61 89.4306 565.162 85.4214 562.538 85.4214C562.422 85.4214 562.306 85.4261 562.186 85.4449C559.368 85.8029 559.816 89.811 562.445 89.811Z" fill="#F35E69"/>
<path d="M589.32 89.811C589.436 89.811 589.552 89.8063 589.671 89.7875C592.488 89.4306 592.042 85.4214 589.411 85.4214C589.302 85.4214 589.186 85.4261 589.061 85.4449C586.248 85.8029 586.695 89.811 589.32 89.811Z" fill="#F35E69"/>
<path d="M546.753 87.6191C546.869 87.6191 546.984 87.6097 547.104 87.591C549.922 87.2329 549.469 83.2249 546.845 83.2249C546.735 83.2249 546.619 83.2295 546.498 83.2483C545.345 83.3951 544.739 84.1476 544.604 84.9905C545.157 85.8206 545.764 86.6917 546.417 87.591C546.523 87.6097 546.639 87.6191 546.753 87.6191Z" fill="#F35E69"/>
<path d="M546.417 87.591C545.763 86.6917 545.157 85.8206 544.604 84.9905C544.427 86.1188 545.085 87.4031 546.417 87.591Z" fill="#F24F5A"/>
<path d="M579.666 106.168C579.782 106.168 579.898 106.164 580.018 106.146C582.835 105.788 582.387 101.78 579.758 101.78C579.648 101.78 579.532 101.785 579.411 101.803C576.594 102.16 577.042 106.168 579.666 106.168Z" fill="#F35E69"/>
<path d="M564.667 110.563C564.783 110.563 564.897 110.553 565.018 110.539C567.835 110.181 567.388 106.168 564.758 106.168C564.647 106.168 564.533 106.178 564.412 106.192C561.595 106.553 562.042 110.563 564.667 110.563Z" fill="#F24F5A"/>
<path d="M424.172 514.046C424.172 524.612 376.071 533.179 316.73 533.179C257.393 533.179 209.287 524.612 209.287 514.046C209.287 503.48 257.393 494.914 316.73 494.914C376.071 494.914 424.172 503.48 424.172 514.046Z" fill="#28292A"/>
<path d="M332.844 509.365H300.614V396.189H325.517L332.844 509.365Z" fill="#28292A"/>
<path d="M473.812 252.473C473.812 269.006 448.018 282.41 361.35 282.41C274.687 282.41 259.355 269.006 259.355 252.473C259.355 235.941 274.687 222.536 361.35 222.536C448.018 222.536 473.812 235.941 473.812 252.473Z" fill="#28292A"/>
<path d="M100.061 110.558C43.8927 110.621 -37.7565 122.077 1.13828 189.907C30.1573 240.533 153.754 381.04 205.595 400.38C257.436 419.718 485.754 426.208 483.57 376.12C481.234 322.47 324.301 317.993 324.301 317.993C324.301 317.993 205.955 110.433 100.061 110.558Z" fill="#2E5660"/>
<path d="M208.936 167.726C208.936 167.726 208.941 167.726 208.946 167.726C207.35 166.213 205.754 164.722 204.143 163.246L204.162 163.268C205.763 164.74 207.345 166.217 208.936 167.726ZM56.3345 113.318C71.0078 111.273 86.2915 110.571 100.061 110.558C100.09 110.558 100.124 110.558 100.152 110.558C105.1 110.558 110.075 111.011 115.061 111.874V111.869C110.08 111.006 105.109 110.553 100.162 110.553C100.133 110.553 100.1 110.553 100.071 110.553C86.3543 110.571 71.1185 111.264 56.508 113.277C56.4453 113.291 56.3973 113.304 56.3345 113.318Z" fill="#D0D5D4"/>
<path d="M436.282 406.685C443.292 405.208 449.734 403.512 455.461 401.568L444.397 363.317C444.392 363.317 444.392 363.317 444.392 363.317L444.085 362.239L440.594 350.177C437.027 351.14 433.527 352.063 430.08 352.947C430.109 353.016 430.133 353.09 430.162 353.163C430.162 353.163 371.008 370.59 325.777 370.59C321.469 370.59 317.287 370.429 313.297 370.085C299.648 368.897 288.397 367.366 279.191 365.215C277.403 365.425 275.666 365.517 273.994 365.517C258.238 365.517 247.711 357.171 247.711 357.171C247.711 357.171 244.051 351.769 238.195 343.253C182.422 339.96 171.461 328.215 171.461 314.238C171.461 305.712 175.542 298.016 191.383 292.564L185.772 289.593L189.363 286.447C164.243 267.879 133.663 237.771 137.302 215.145C139.965 198.557 151.411 189.811 164.715 189.811C165.787 189.811 166.874 189.866 167.965 189.986L152.999 167.208C152.128 168.281 151.037 169.207 149.691 169.867C148.215 170.596 146.639 170.94 145.085 170.94C141.456 170.94 137.951 169.056 136.172 165.772C135.754 165.002 135.456 164.204 135.272 163.396C131.133 162.604 127.08 161.406 123.191 159.833C121.191 159.022 119.095 157.985 118.133 156.123C117.302 154.5 117.499 152.574 116.931 150.85C115.431 146.327 109.615 144.906 105.663 142.026C99.3585 137.431 98.1573 127.677 103.166 121.812C106.493 117.922 111.946 115.702 115.061 111.874C110.075 111.011 105.1 110.558 100.152 110.558C100.124 110.558 100.09 110.558 100.061 110.558C86.2915 110.571 71.0077 111.273 56.3344 113.318C22.6766 121.752 82.652 196.97 89.3253 207.119L130.518 269.845C185.633 362.188 225.57 371.47 233.878 375.743C243.003 380.444 252.84 383.237 263.09 384.663C275.426 386.374 288.003 386.869 300.435 387.69C313.219 388.525 326.042 389.241 338.849 389.557C343.398 389.672 347.946 389.735 352.488 389.735C360.897 389.735 369.297 389.525 377.691 389.025C383.777 388.671 389.84 388.099 395.908 387.512C398.677 387.24 401.474 387.016 404.258 387.016C407.643 387.016 411.013 387.346 414.291 388.313C424.634 391.378 431.504 398.247 436.282 406.685ZM207.201 167.895C207.759 167.836 208.335 167.781 208.936 167.726C207.345 166.217 205.763 164.74 204.162 163.268L207.201 167.895Z" fill="#2A4E57"/>
<path d="M181.772 118.257C188.326 113.116 195.416 104.335 190.138 97.9961C188.589 96.1341 186.186 94.9836 184.889 92.9526C181.489 87.6367 187.633 80.9602 186.576 74.8143C185.643 69.4174 183.908 64.8494 177.297 61.8639C175.104 60.8731 170.69 60.8684 167.446 62.5566C158.244 67.3395 158.148 81.7257 148.023 84.2803C141.517 85.9168 135.83 79.6207 129.215 78.4514C122.884 77.3325 116.061 81.8912 114.998 87.9537C113.759 95.0294 119.412 102.441 116.7 109.136C114.397 114.827 107.21 117.083 103.167 121.812C98.1574 127.677 99.3586 137.431 105.663 142.026C109.615 144.906 115.431 146.327 116.932 150.85C117.499 152.574 117.302 154.5 118.133 156.123C119.095 157.985 121.191 159.022 123.191 159.833C130.244 162.691 137.85 164.291 145.504 164.534C147.61 164.598 149.816 164.538 151.663 163.576C154.027 162.342 155.345 159.879 156.523 157.564C162.282 146.218 168.042 134.868 173.807 123.522L181.772 118.257Z" fill="#28292A"/>
<path d="M287.575 262.449C287.575 262.449 415.575 258.665 466.133 268.447C474.167 269.992 481.628 272.84 488.71 276.867C488.835 276.958 488.994 277.018 489.118 277.11C499.061 282.773 508.238 290.772 517.224 300.704C517.35 300.86 517.512 301.007 517.638 301.158C524.594 308.89 553.537 349.971 561.489 362.316C569.494 374.767 577.97 388.062 587.21 402.026L599.022 420.47C599.181 420.379 599.34 420.319 599.499 420.227C600.071 421.108 600.677 421.957 601.277 422.837C601.277 422.837 607.855 433.467 580.417 444.735L529.133 400.875L441.965 326.39L273.57 317.819L287.575 262.449Z" fill="#F8A1AE"/>
<path d="M507.104 382.058C507.104 382.058 507.104 382.054 507.104 382.05L505.532 380.711V380.72L507.104 382.058Z" fill="#F9B3C2"/>
<path d="M507.104 382.05C507.734 362.858 506.445 314.935 479.59 298.649L465.666 293.147L473.671 270.34C471.21 269.575 468.71 268.952 466.133 268.452C465.499 268.332 464.854 268.213 464.195 268.093C462.893 273.349 460.133 284.401 457.268 295.338C463.484 297.535 469.08 300.117 473.83 303.14C492.955 315.301 501.763 346.797 505.532 380.711L507.104 382.05Z" fill="#F6889C"/>
<path d="M539.768 409.978V409.974L529.133 400.875L522.73 395.404L522.725 395.413L529.129 400.88L539.768 409.978ZM567.224 371.249L567.234 371.241C565.292 368.218 563.378 365.242 561.494 362.316C560.186 360.284 558.321 357.492 556.08 354.195L556.076 354.199C558.321 357.496 560.186 360.289 561.489 362.316C563.373 365.247 565.287 368.223 567.224 371.249Z" fill="#F9B3C2"/>
<path d="M539.768 409.974L567.224 371.249C565.287 368.223 563.373 365.247 561.489 362.316C560.186 360.289 558.321 357.496 556.076 354.199L522.73 395.404L529.133 400.875L539.768 409.974Z" fill="#F6889C"/>
<path d="M334.162 262.591C334.162 262.591 407.205 258.605 445.816 265.576L440.594 316.338L344.599 317.333L334.162 262.591Z" fill="#F79622"/>
<path d="M464.979 264.934C464.979 264.934 450.147 325.427 448.397 324.423C446.647 323.418 429.128 320.745 429.128 320.745L442.09 258.252L464.979 264.934Z" fill="#E33A3B"/>
<path d="M239.965 304.516C239.965 304.516 211.166 412.137 440.594 350.177L482.334 494.497C482.334 494.497 479.022 503.779 506.334 492.506C504.883 485.582 521.767 333.626 473.83 303.14C425.897 272.657 292.989 287.199 292.989 287.199L239.965 304.516Z" fill="#F8A1AE"/>
<path d="M444.392 363.317C450.44 345.298 460.551 313.797 463.595 297.811C455.912 294.499 446.979 291.913 437.297 289.918C436.109 293.202 428.931 313.715 427.85 332.641C430.48 332.15 433.104 331.636 435.729 331.114C435.806 331.095 435.873 331.09 435.941 331.09C436.95 331.09 437.21 332.632 436.109 332.856C433.335 333.411 430.546 333.952 427.763 334.47C427.517 341.194 428.109 347.637 430.075 352.938C433.522 352.058 437.032 351.132 440.599 350.172L444.085 362.239L444.397 363.317" fill="#F6889C"/>
<path d="M466.374 439.324H466.379L464.291 432.105C464.286 432.105 464.286 432.105 464.281 432.105L466.374 439.324ZM508.066 430.574L508.076 430.569C508.066 426.923 508.023 423.203 507.941 419.429H507.936C508.018 423.208 508.056 426.923 508.066 430.574Z" fill="#F9B3C2"/>
<path d="M466.379 439.324L508.066 430.574C508.056 426.923 508.018 423.208 507.936 419.429C497.763 422.332 477.166 428.243 464.291 432.105L466.379 439.324Z" fill="#F6889C"/>
<path d="M343.557 290.459C343.557 290.459 367.557 274.532 437.464 289.464C437.464 289.464 421.816 331.265 430.162 353.163C430.162 353.163 359.205 374.066 313.297 370.085C267.383 366.1 248.599 358.138 243.383 336.241C238.167 314.348 343.557 290.459 343.557 290.459Z" fill="#F8A427"/>
<path d="M254.927 322.593C271.605 338.153 295.706 342.33 318.177 342.762C330.753 343.005 343.373 342.45 355.921 341.652C368.604 340.84 381.263 339.621 393.864 338.006C407.903 336.204 421.869 333.897 435.729 331.114C436.907 330.875 437.287 332.618 436.109 332.856C410.989 337.905 385.522 341.345 359.921 343.152C347.138 344.055 334.287 344.656 321.469 344.582C309.191 344.514 296.796 343.597 284.941 340.395C273.292 337.258 262.22 331.884 253.517 323.767C252.662 322.964 254.071 321.795 254.927 322.593Z" fill="#F79622"/>
<path d="M455.056 291.005L427.724 283.076C427.724 283.076 414.066 343.807 420.369 359.844L441.393 356.841L455.056 291.005Z" fill="#F25454"/>
<path d="M373.825 221.578C381.965 220.079 387.739 219.446 387.739 219.446C392.931 218.942 405.522 218.528 405.744 220.859C405.802 221.459 405.143 222.349 403.095 222.894C400.475 223.601 397.267 224.083 393.504 225.073C401.537 223.046 414.979 222.954 415.196 226.339C415.408 229.724 401.509 229.279 396.546 230.655C405.123 229.265 415.807 229.957 416.922 231.856C418.032 233.749 404.965 237.18 397.772 237.501C405.451 236.171 415.58 236.134 415.85 238.281C416.119 240.422 400.344 243.329 393.562 243.99C396.73 247.19 399.936 251.07 397.431 251.607C394.546 252.23 384.344 246.499 379.277 243.82L373.825 221.578Z" fill="#F8A1AE"/>
<path d="M198.152 169.509C198.152 169.509 226.528 161.264 256.253 177.324C282.291 191.389 294.883 216.529 320.359 214.369C334.485 213.168 368.604 214.19 382.879 216.447C382.879 216.447 380.7 235.469 385.378 247.503C385.378 247.503 331.835 258.679 306.273 258.138C280.705 257.597 255.613 229.962 246.639 216.709C237.658 203.455 198.152 169.509 198.152 169.509Z" fill="#E33A3B"/>
<path d="M137.605 160.906C136.864 159.765 137.239 158.265 138.44 157.559C139.643 156.852 141.21 157.21 141.95 158.356C142.69 159.498 142.316 160.998 141.114 161.704C139.917 162.411 138.344 162.053 137.605 160.906Z" fill="white"/>
<path d="M125.923 125.943L125.9 125.971L125.926 126.017L125.923 125.943Z" fill="#F8A688"/>
<path d="M174.326 103.38C170.532 104.857 138.589 111.305 131.31 130.671C134.667 135.657 150.037 151.363 149.561 151.157C148.576 150.717 148.321 150.423 142.263 152.243C141.657 152.399 141.061 152.587 140.485 152.877C135.557 155.307 133.623 161.081 136.172 165.772C138.715 170.464 144.768 172.297 149.691 169.867C151.037 169.207 152.128 168.281 152.999 167.208L168.873 191.367C169.292 192.238 169.749 193.095 170.296 193.93C177.037 204.184 191.214 207.288 201.97 200.86C212.724 194.43 215.979 180.902 209.239 170.647C208.724 169.863 208.152 169.138 207.561 168.441L200.777 158.118C208.878 148.74 203.864 137.752 196.642 129.648C189.426 121.545 174.72 103.752 174.326 103.38Z" fill="#F8A1AE"/>
<path d="M144.027 163.049L146.143 158.994C146.181 158.99 146.22 158.99 146.263 158.99C147.772 158.99 150.186 161.31 150.186 161.31C149.451 159.53 147.984 158.476 145.628 158.017C145.368 157.966 145.104 157.944 144.844 157.944C143.123 157.944 141.411 158.976 140.46 160.365C140.46 160.365 142.682 159.14 143.859 158.825C144.335 158.697 144.695 158.659 144.965 158.659C145.358 158.659 145.542 158.747 145.542 158.747C144.576 159.975 144.037 161.507 144.027 163.049Z" fill="#F6889C"/>
<path d="M165.416 155.459C166.801 155.459 168.205 155.105 169.469 154.357C173.114 152.221 174.248 147.667 172.008 144.191C170.541 141.925 168.003 140.678 165.403 140.678C164.018 140.678 162.614 141.031 161.35 141.773C157.706 143.916 156.571 148.47 158.811 151.946C160.278 154.211 162.816 155.459 165.416 155.459Z" fill="#F6889C"/>
<path d="M193.84 137.615C195.224 137.615 196.629 137.262 197.893 136.519C198.883 135.936 199.666 135.166 200.273 134.299C199.176 132.671 197.95 131.111 196.642 129.648C195.686 128.571 194.599 127.329 193.426 125.975C192.691 125.123 191.917 124.223 191.128 123.302C190.662 123.467 190.205 123.673 189.767 123.93C186.124 126.071 184.989 130.625 187.234 134.097C188.7 136.362 191.239 137.615 193.84 137.615Z" fill="#F6889C"/>
<path d="M177.047 111.846C174.863 109.136 169.94 111.241 168.031 113.231C166.984 114.318 166.114 116.51 167.133 117.85C168.104 119.12 172.253 117.042 173.517 116.377C174.69 115.758 176.359 115.451 177.075 114.29C177.561 113.506 177.657 112.608 177.047 111.846Z" fill="#28292A"/>
<path d="M150.715 132.451C152.133 131.497 152.291 130.158 152.965 128.727C153.595 127.392 155.59 123.279 153.951 122.399C152.528 121.632 150.326 122.582 149.31 123.623C147.315 125.664 145.562 130.502 148.634 132.4C149.186 132.739 150.152 132.831 150.715 132.451Z" fill="#28292A"/>
<path d="M166.238 121.774C171.936 124.719 177.739 127.488 183.628 130.08C183.835 130.167 183.941 130.465 183.873 130.663C182.941 133.386 181.739 136.018 180.278 138.523C179.936 139.11 178.998 138.573 179.345 137.991C180.686 135.689 181.792 133.285 182.672 130.791C176.917 128.255 171.249 125.544 165.676 122.664C165.061 122.348 165.618 121.458 166.238 121.774Z" fill="#28292A"/>
<path d="M185.431 144.503C184.181 147.07 181.051 148.391 178.23 147.405C177.936 147.301 177.614 147.359 177.456 147.643C177.325 147.888 177.416 148.281 177.71 148.382C181.104 149.57 184.917 148.148 186.455 144.994C186.768 144.356 185.744 143.861 185.431 144.503Z" fill="#28292A"/>
<path d="M157.974 133.166C158.278 132.739 158.831 132.694 159.267 132.927C160.316 133.483 163.912 134.854 164.883 129.066C164.965 128.594 165.557 128.342 166.066 128.507C166.508 128.645 167.325 132.511 164.44 135.441C163.61 136.285 162.311 136.381 161.162 136.078C160.061 135.79 159.09 135.102 158.23 134.404C157.845 134.093 157.671 133.602 157.974 133.166Z" fill="#28292A"/>
<path d="M181.085 117.648C180.604 117.693 180.331 118.088 180.339 118.519C180.359 119.537 179.974 122.82 174.782 121.114C174.354 120.972 173.897 121.312 173.82 121.766C173.749 122.156 176.599 124.403 180.233 123.467C181.287 123.196 181.912 122.26 182.147 121.275C182.374 120.316 182.215 119.303 182.003 118.358C181.907 117.941 181.57 117.602 181.085 117.648Z" fill="#28292A"/>
<path d="M184.594 178.181C191.936 178.181 199.859 175.563 207.003 167.601L200.777 158.118C200.777 158.118 190.46 169.634 170.124 169.634C166.551 169.634 162.672 169.276 158.48 168.441C158.48 168.441 170.45 178.181 184.594 178.181Z" fill="#F6889C"/>
<path d="M168.604 190.595C168.604 190.595 192.95 197.232 203.383 187.275C213.86 177.287 207.562 168.441 207.562 168.441L219.383 169.359C277.816 180.97 290.624 250.474 290.624 250.474L350.859 259.601C317.09 283.516 338.412 325.959 308.955 351.159C275.85 379.481 247.711 357.171 247.711 357.171C247.711 357.171 210.46 302.222 183.671 266.516C156.879 230.814 153.691 224.27 153.691 224.27C153.076 206.692 168.604 190.595 168.604 190.595Z" fill="#F25454"/>
<path d="M240.743 272.661C240.788 272.629 240.836 272.592 240.884 272.556C253.759 262.668 268.282 254.799 283.764 249.264C284.763 248.906 284.205 247.608 283.282 247.608C283.172 247.608 283.051 247.627 282.927 247.668C278.513 249.25 274.177 251.011 269.926 252.964C259.008 257.982 248.71 264.223 239.297 271.497C239.792 271.909 240.273 272.294 240.743 272.661Z" fill="#F14D4A"/>
<path d="M280.879 282.338C283.335 274.019 286.753 265.974 291.1 258.381C291.504 257.674 290.849 256.969 290.23 256.969C289.97 256.969 289.719 257.092 289.552 257.385C285.056 265.237 281.509 273.542 278.998 282.15C279.628 282.213 280.253 282.278 280.879 282.338Z" fill="#F14D4A"/>
<path d="M291.565 283.199C294.013 279.178 296.455 275.156 298.902 271.129C299.325 270.432 298.677 269.731 298.047 269.731C297.787 269.731 297.527 269.85 297.355 270.139C294.783 274.367 292.21 278.6 289.638 282.833C289.59 282.911 289.557 282.989 289.532 283.062C290.215 283.108 290.893 283.154 291.565 283.199Z" fill="#F14D4A"/>
<path d="M321.605 283.24C322.316 283.195 323.037 283.149 323.758 283.103C327.666 275.811 332.225 268.878 337.979 262.613C338.556 261.985 337.883 261.292 337.171 261.292C336.907 261.292 336.642 261.389 336.432 261.618C331.797 266.662 327.854 272.234 324.445 278.096C323.461 279.792 322.513 281.508 321.605 283.24Z" fill="#F14D4A"/>
<path d="M240.301 266.516C240.498 266.516 240.7 266.438 240.883 266.255C250.859 256.189 261.917 247.122 273.85 239.225C274.652 238.693 273.984 237.712 273.181 237.712C272.994 237.712 272.801 237.762 272.624 237.886C260.686 245.783 249.633 254.845 239.653 264.915C239.013 265.562 239.613 266.516 240.301 266.516Z" fill="#F14D4A"/>
<path d="M190.811 203.918C197.734 203.478 204.604 201.134 209.686 196.53C215.282 191.468 218.21 183.744 216.331 176.494C216.21 176.026 215.816 175.819 215.421 175.819C214.878 175.819 214.334 176.209 214.503 176.856C215.504 180.717 215.042 184.725 213.426 188.381C210.533 194.939 204.066 199.355 196.999 201.171C194.465 201.822 191.893 202.143 189.31 202.198C189.806 202.758 190.306 203.326 190.811 203.918Z" fill="#F14D4A"/>
<path d="M260.836 342.486C260.836 342.486 256.581 391.194 300.551 396.605C300.551 396.605 314.735 385.782 299.134 381.724C283.527 377.665 275.018 369.548 273.6 345.188C272.181 320.837 262.249 330.306 260.836 342.486Z" fill="#28292A"/>
<path d="M385.917 314.238C385.917 330.77 360.124 344.175 273.459 344.175C186.796 344.175 171.461 330.77 171.461 314.238C171.461 297.705 186.796 284.301 273.459 284.301C360.124 284.301 385.917 297.705 385.917 314.238Z" fill="#28292A"/>
<path d="M343.557 287.469C343.557 278.128 351.499 270.552 361.292 270.552C371.09 270.552 379.032 278.128 379.032 287.469C379.032 296.815 371.09 304.391 361.292 304.391C351.499 304.391 343.557 296.815 343.557 287.469Z" fill="#2E5660"/>
<path d="M331.07 307.615C338.705 306.739 343.258 305.758 343.258 305.758L343.244 305.589C348.523 306.207 353.696 306.28 357.85 305.89C358.493 305.832 359.898 305.253 360.435 304.891C360.979 304.524 361.355 303.85 361.157 303.268C360.96 302.699 360.296 302.474 359.729 302.222C357.104 301.052 355.532 301.052 348.691 299.291C356.849 300.796 361.931 300.906 365.84 300.566C367.754 300.402 368.859 299.883 369.244 299.149C369.666 298.329 369.037 297.59 368.296 297.085C366.104 295.591 363.441 295.225 360.783 294.669C355.734 293.614 357.408 293.899 352.359 292.844C357.658 293.33 370.008 294.321 370.989 292.353C371.965 290.39 367.075 288.735 365.474 288.474C359.618 287.501 358.955 286.906 353.095 285.932C360.849 286.767 369.96 287.538 370.075 285.383C370.191 283.228 355.249 279.953 348.432 279.733C351.368 276.335 354.291 272.258 351.759 271.882C348.831 271.446 335.249 282.003 330.379 285.001C330.066 284.998 328.844 285.891 327.618 286.781C326.392 287.681 325.157 288.574 324.826 288.566L331.07 307.615Z" fill="#F8A1AE"/>
<path d="M332.936 307.487C247.719 315.604 229.368 327.005 160.114 260.44C160.114 260.44 136.725 220.886 166.379 212.975C188.407 207.096 230.955 271.019 246.647 276.183C262.344 281.351 292.273 284.057 311.61 283.745C318.73 283.635 333.456 282.136 339.522 282.682L332.936 307.487Z" fill="#F8A1AE"/>
<path d="M325.705 298.209C326.152 298.209 326.589 297.948 326.614 297.398C326.753 293.912 327.897 290.537 329.931 287.635C330.407 286.956 329.753 286.254 329.1 286.254C328.835 286.254 328.571 286.369 328.379 286.644C326.167 289.798 324.902 293.505 324.748 297.301C324.725 297.898 325.219 298.209 325.705 298.209Z" fill="#F6889C"/>
<path d="M177.522 192.407C159.436 185.107 140.796 193.375 137.302 215.145C132.705 243.738 182.748 284.272 207.368 298.384L230.339 265.158C230.339 265.158 195.051 199.479 177.522 192.407Z" fill="#F25454"/>
<path d="M222.475 257.468L224.071 256.069C216.686 240.752 207.08 226.756 197.33 212.65C197.104 212.328 196.787 212.196 196.47 212.196C195.734 212.196 195.008 212.906 195.527 213.659C205.355 227.87 215.1 241.981 222.475 257.468Z" fill="#F14D4A"/>
<path d="M185.772 289.593L207.464 301.085L238.137 269.419L226.642 253.822L185.772 289.593Z" fill="#E33A3B"/>
<path d="M246.647 276.183L233.408 289.262L244.758 292.872L254.215 278.44L246.647 276.183Z" fill="white"/>
<path d="M249.484 277.201L243.104 284.979L246.291 285.992L252.321 278.215L249.484 277.201Z" fill="#F25454"/>
<path d="M175.897 98.3824C177.008 105.665 170.878 113.217 163.209 114.02C160.594 114.29 157.936 113.878 155.325 114.203C152.72 114.525 149.96 115.877 149.229 118.29C148.695 120.042 149.325 122.06 148.432 123.673C146.816 126.576 141.95 125.796 139.464 128.072C137.355 130.002 137.825 133.473 139.532 135.739C141.239 138.005 143.849 139.458 146.133 141.205C149.436 143.732 156.777 148.79 153.993 153.436C151.209 158.081 134.48 146.58 128.96 140.274C126.422 137.371 124.225 134.088 123.31 130.406C121.859 124.563 123.873 118.244 127.763 113.52C131.653 108.802 137.229 105.545 143.118 103.426" fill="#28292A"/>
<path d="M300.778 241.697C301.123 241.697 301.456 241.518 301.585 241.101C303.807 233.782 306.027 226.462 308.248 219.144C308.455 218.46 307.855 217.984 307.287 217.984C306.941 217.984 306.604 218.162 306.48 218.579C304.258 225.899 302.037 233.217 299.816 240.536C299.61 241.221 300.21 241.697 300.778 241.697Z" fill="#C1383B"/>
<path d="M294.589 229.053C294.897 229.053 295.205 228.925 295.355 228.664C297.408 225.119 299.671 221.689 302.133 218.386C302.639 217.717 301.984 217.02 301.316 217.02C301.051 217.02 300.783 217.13 300.586 217.392C298.124 220.693 295.86 224.124 293.807 227.669C293.562 228.095 293.61 228.618 294.061 228.907C294.21 229.003 294.397 229.053 294.589 229.053Z" fill="#C1383B"/>
<path d="M372.566 245.388C373.095 245.388 373.676 244.989 373.6 244.334C372.7 236.533 373.363 228.627 375.532 221.061C375.729 220.377 375.124 219.895 374.556 219.895C374.215 219.895 373.883 220.075 373.764 220.491C371.499 228.379 370.835 236.57 371.772 244.696C371.825 245.178 372.186 245.388 372.566 245.388Z" fill="#C1383B"/>
<path d="M204.72 290.051C204.917 290.051 205.119 289.973 205.302 289.785C212.119 282.814 219.368 276.239 227.018 270.097C227.754 269.51 227.123 268.543 226.374 268.543C226.181 268.543 225.979 268.608 225.792 268.759C218.143 274.899 210.888 281.471 204.071 288.446C203.441 289.093 204.037 290.051 204.72 290.051Z" fill="#C1383B"/>
<path d="M199.595 288.523C199.897 288.523 200.19 288.377 200.392 288.138C203.358 284.635 206.599 281.356 210.08 278.311C210.777 277.701 210.162 276.738 209.436 276.738C209.239 276.738 209.037 276.812 208.849 276.972C205.254 280.118 201.912 283.521 198.845 287.144C198.528 287.515 198.705 288.13 199.1 288.377C199.257 288.478 199.426 288.523 199.595 288.523Z" fill="#C1383B"/>
<path d="M552.854 495.703L473.724 503.132L465.869 439.429L509.658 430.238L508.076 477.359C531.6 471.677 550.331 485.627 552.854 495.703Z" fill="#E33A3B"/>
<path d="M473.724 503.132L520.652 498.725L484.936 489.893L491.941 446.78L509.658 430.238L465.869 439.429L472.821 495.781L473.724 503.132Z" fill="#BA373A"/>
<path d="M524.162 491.062C523.802 491.048 523.711 488.837 524.897 486.435C526.075 484.023 527.917 482.678 528.162 482.935C528.445 483.193 527.201 484.802 526.143 486.989C525.056 489.163 524.556 491.108 524.162 491.062Z" fill="white"/>
<path d="M515.224 490.465C514.864 490.443 514.849 488.196 516.278 485.88C517.691 483.551 519.744 482.454 519.941 482.743C520.185 483.041 518.715 484.463 517.464 486.54C516.185 488.594 515.618 490.521 515.224 490.465Z" fill="white"/>
<path d="M508.104 482.486C507.82 482.266 509.701 480.13 513.047 479.298C516.387 478.441 519.133 479.413 518.998 479.735C518.917 480.106 516.359 479.794 513.403 480.565C510.427 481.289 508.369 482.771 508.104 482.486Z" fill="white"/>
<path d="M491.701 497.95C513.903 495.652 550.609 491.58 550.652 491.938C550.69 492.3 514.052 496.955 491.85 499.253C469.658 501.546 469.512 500.243 491.701 497.95Z" fill="white"/>
<path d="M474.835 483.421C474.801 483.289 476.691 482.706 479.864 482.647C483.027 482.577 487.469 483.234 491.873 485.228C496.273 487.242 499.605 490.121 501.532 492.511C503.484 494.904 504.195 496.665 504.066 496.725C503.864 496.836 502.859 495.262 500.792 493.112C498.743 490.956 495.474 488.333 491.282 486.412C487.08 484.509 482.888 483.743 479.84 483.573C476.787 483.394 474.873 483.642 474.835 483.421Z" fill="white"/>
<path d="M481.744 483.265C481.363 483.183 481.373 467.94 481.706 464.762C482.042 461.584 482.364 446.39 482.753 446.385C483.123 446.377 483.416 461.625 483.07 464.89C482.734 468.155 482.104 483.344 481.744 483.265Z" fill="white"/>
<path d="M532.296 493.814C532.128 493.855 531.739 493.167 531.623 491.938C531.504 490.723 531.749 488.943 532.773 487.278C533.797 485.618 535.311 484.55 536.485 484.059C537.666 483.554 538.485 483.546 538.528 483.706C538.677 484.054 535.729 485.045 533.96 487.944C532.162 490.828 532.687 493.773 532.296 493.814Z" fill="white"/>
<path d="M642.243 398.339L583.489 449.435L539.768 409.978L568.407 369.58L594.854 409.185C610.143 391.212 633.907 391.703 642.243 398.339Z" fill="#E33A3B"/>
<path d="M583.489 449.435L618.263 419.195L578.48 432.408L556.407 403.388L568.407 369.58L539.768 409.978L583.489 449.435Z" fill="#BA373A"/>
<path d="M616.339 410.992C616.037 411.184 614.581 409.464 614.027 406.859C613.459 404.255 614.089 402.127 614.445 402.196C614.84 402.242 614.849 404.241 615.373 406.594C615.869 408.955 616.681 410.799 616.339 410.992Z" fill="white"/>
<path d="M608.801 415.605C608.498 415.798 607.08 414.004 606.773 411.331C606.44 408.661 607.403 406.611 607.744 406.726C608.124 406.827 607.835 408.809 608.137 411.184C608.402 413.564 609.152 415.426 608.801 415.605Z" fill="white"/>
<path d="M598.09 413.275C597.729 413.261 597.893 410.477 600.056 407.9C602.195 405.305 605.003 404.525 605.1 404.855C605.267 405.204 603.018 406.411 601.133 408.716C599.205 410.992 598.485 413.354 598.09 413.275Z" fill="white"/>
<path d="M594.642 435.027C610.994 420.521 637.86 396.317 638.119 396.582C638.379 396.844 611.931 421.484 595.575 435.985C579.234 450.486 578.296 449.527 594.642 435.027Z" fill="white"/>
<path d="M572.018 433.004C571.908 432.917 573.051 431.376 575.562 429.514C578.052 427.656 582.027 425.648 586.801 424.736C591.59 423.836 596.066 424.25 599.109 425.061C602.177 425.864 603.85 426.872 603.782 426.992C603.691 427.199 601.903 426.511 598.897 425.965C595.903 425.409 591.638 425.166 587.071 426.02C582.508 426.896 578.672 428.666 576.124 430.271C573.565 431.871 572.186 433.16 572.018 433.004Z" fill="white"/>
<path d="M577.456 428.941C577.1 429.092 567.552 416.862 565.82 414.133C564.099 411.391 554.835 399.031 555.138 398.807C555.431 398.586 565.229 410.638 566.998 413.455C568.773 416.265 577.797 428.799 577.456 428.941Z" fill="white"/>
<path d="M624.586 408.552C624.475 408.68 623.734 408.355 622.869 407.433C622.013 406.529 621.09 404.961 620.869 403.044C620.647 401.128 621.191 399.408 621.825 398.348C622.455 397.265 623.104 396.793 623.244 396.899C623.575 397.091 621.835 399.567 622.234 402.902C622.604 406.236 624.869 408.295 624.586 408.552Z" fill="white"/>
<path d="M247.825 281.888C261.1 293.266 277.917 300.672 295.628 302.897C309.517 304.644 323.926 303.236 337.869 301.882C358.475 299.888 377.96 297.985 396.195 305.231C402.056 307.56 407.58 310.821 412.917 313.971C415.474 315.484 418.109 317.035 420.758 318.474C441.157 329.586 466.152 336.067 495.085 337.74C498.349 337.919 501.86 338.061 505.499 338.061C516.157 338.061 528.066 336.851 538.849 332.076C551.787 326.326 574.538 309.982 581.426 265.012C588.258 220.395 578.739 175.797 569.557 132.671L567.724 133.028C576.893 176.008 586.354 220.445 579.575 264.759C577.359 279.27 572.912 292.624 566.739 303.396C559.403 316.163 549.754 325.275 538.066 330.458C523.974 336.708 507.759 336.671 495.196 335.961C466.561 334.306 441.83 327.895 421.691 316.929C419.061 315.503 416.445 313.953 413.908 312.458C408.493 309.27 402.912 305.978 396.922 303.593C378.239 296.168 357.615 298.177 337.681 300.104C323.85 301.456 309.552 302.846 295.873 301.136C278.455 298.943 261.936 291.665 248.932 280.449L247.825 281.888Z" fill="#F25454"/>
<path d="M561.167 126.742C561.772 132.066 564.354 140.435 569.325 140.435C574.301 140.435 576.985 131.786 577.527 126.342L561.167 126.742Z" fill="#DBDCD9"/>
</svg>
