<svg width="1280" height="832" viewBox="0 0 1280 832" fill="none" xmlns="http://www.w3.org/2000/svg">
<g clip-path="url(#clip0_149_24)">
<rect width="1280" height="832" fill="#F7F7F7"/>
<path d="M31.7994 777.57C31.7994 808.026 159.492 832.712 317.015 832.712C474.539 832.712 602.236 808.026 602.236 777.57C602.236 747.116 474.539 722.429 317.015 722.429C159.492 722.429 31.7994 747.116 31.7994 777.57Z" fill="#DBDCD9"/>
<path d="M1322.2 837.233V634.865C1319.84 629.725 1317.17 624.592 1314.12 619.465C1299.26 594.477 1278.81 587.218 1249.2 592.73C1228.78 596.527 1209.6 607.189 1197.2 623.272C1179.68 645.986 1176.1 675.428 1167.99 702.545C1159.88 729.662 1143.19 758.3 1114.44 764.895C1089.85 770.536 1065.01 758.113 1043.51 745.391C1022.01 732.674 998.823 718.659 973.631 720.833C950.751 722.806 931.184 738.232 918.521 756.517C902.15 780.161 895.828 808.961 898.42 837.233H1322.2Z" fill="#F1F1F0"/>
<path d="M1164.78 255.535C1164.92 253.99 1166.93 252.747 1169.44 252.646C1174.13 252.458 1178.76 252.347 1183.35 252.275C1183.38 247.62 1183.47 243.139 1183.64 238.897C1183.73 236.503 1185.02 234.554 1186.64 234.417C1189.14 234.201 1191.77 234.256 1194.49 234.49C1196.11 234.627 1197.41 236.535 1197.52 238.93C1197.71 243.429 1197.83 247.853 1197.91 252.256C1202.59 252.316 1207.24 252.421 1211.8 252.623C1214.28 252.733 1216.29 253.93 1216.48 255.457C1216.8 258.104 1216.88 260.625 1216.6 262.978C1216.41 264.537 1214.33 265.748 1211.79 265.817C1207.07 265.935 1202.45 266.028 1197.92 266.091C1197.86 270.559 1197.75 274.993 1197.54 279.345C1197.42 281.712 1196.17 283.629 1194.57 283.802C1191.79 284.11 1189.15 284.178 1186.68 283.918C1185.05 283.743 1183.77 281.753 1183.71 279.332C1183.58 274.851 1183.49 270.462 1183.42 266.161C1178.54 266.129 1173.85 266.046 1169.4 265.885C1166.89 265.793 1164.85 264.569 1164.7 263.024C1164.48 260.635 1164.54 258.121 1164.78 255.535Z" fill="#F25454"/>
<path d="M-2.77319 255.494C-2.63903 253.935 -0.609444 252.674 1.92348 252.573C6.67917 252.38 11.3511 252.27 15.996 252.196C16.0293 247.487 16.1166 242.955 16.2889 238.668C16.3849 236.246 17.6785 234.28 19.3179 234.138C21.852 233.917 24.5253 233.977 27.2551 234.21C28.8896 234.348 30.2213 236.284 30.3185 238.7C30.529 243.249 30.6398 247.73 30.7124 252.178C35.457 252.237 40.1597 252.343 44.7751 252.549C47.2846 252.66 49.3179 253.87 49.505 255.415C49.8225 258.09 49.905 260.644 49.6207 263.019C49.4385 264.597 47.3278 265.826 44.7604 265.89C39.9912 266.014 35.313 266.106 30.7357 266.17C30.6791 270.691 30.5684 275.172 30.3419 279.575C30.2311 281.969 28.9671 283.903 27.3425 284.082C24.5339 284.389 21.8656 284.463 19.3659 284.197C17.7166 284.023 16.4243 282.01 16.3616 279.561C16.2262 275.03 16.14 270.586 16.0674 266.238C11.1308 266.211 6.38012 266.124 1.89027 265.959C-0.6488 265.867 -2.71527 264.629 -2.85927 263.065C-3.08081 260.649 -3.03288 258.112 -2.77319 255.494Z" fill="#F25454"/>
<path d="M564.227 781.744C564.352 780.382 566.126 779.281 568.337 779.194C572.491 779.024 576.579 778.927 580.635 778.864C580.665 774.75 580.741 770.788 580.89 767.041C580.977 764.923 582.112 763.203 583.545 763.078C585.756 762.891 588.083 762.941 590.481 763.143C591.91 763.267 593.063 764.954 593.155 767.069C593.333 771.045 593.434 774.961 593.502 778.845C597.646 778.9 601.756 778.992 605.785 779.17C607.977 779.267 609.756 780.327 609.919 781.675C610.198 784.013 610.266 786.247 610.02 788.324C609.862 789.7 608.016 790.773 605.775 790.828C601.606 790.939 597.52 791.021 593.52 791.076C593.462 795.024 593.366 798.941 593.179 802.789C593.078 804.88 591.967 806.576 590.554 806.728C588.102 806.999 585.765 807.062 583.588 806.829C582.14 806.677 581.015 804.916 580.953 802.78C580.842 798.817 580.756 794.937 580.698 791.136C576.385 791.108 572.236 791.035 568.309 790.893C566.087 790.809 564.284 789.728 564.16 788.365C563.958 786.252 564.011 784.032 564.227 781.744Z" fill="#C61E25"/>
<path d="M261.073 285.445C263.121 285.445 265.295 285.546 267.641 285.743C268.564 285.825 269.963 287.481 270.082 290.278C270.375 296.918 270.549 303.462 270.66 309.957L270.693 312.043L272.876 312.07C280.871 312.171 287.396 312.346 293.396 312.616C296.319 312.745 298.087 314.056 298.188 314.913C298.679 318.959 298.736 322.443 298.367 325.571C298.261 326.484 296.327 327.796 293.419 327.868C286.438 328.053 279.606 328.185 272.905 328.282L270.723 328.309L270.688 330.396C270.582 337.99 270.405 344.204 270.121 349.96C269.986 352.753 268.607 354.435 267.712 354.536C263.482 354.995 259.838 355.055 256.534 354.701C255.583 354.6 254.203 352.757 254.126 349.982C253.943 343.356 253.794 336.858 253.698 330.497L253.669 328.397L251.462 328.383C243.785 328.337 237.01 328.203 230.766 327.974C227.914 327.868 226.044 326.571 225.963 325.686C225.659 322.499 225.699 318.995 226.073 314.978C226.16 314.102 227.895 312.767 230.823 312.648C237.765 312.368 244.597 312.209 251.386 312.098L253.583 312.065L253.593 309.965C253.641 302.683 253.775 296.221 254.02 290.218C254.13 287.499 255.487 285.715 256.415 285.637C257.895 285.508 259.444 285.445 261.073 285.445ZM261.02 359.218C263.265 359.218 265.65 359.08 268.222 358.796C271.698 358.416 274.385 354.784 274.612 350.162C274.871 344.891 275.049 339.252 275.154 332.537C281.174 332.451 287.303 332.321 293.545 332.162C298.526 332.033 302.433 329.465 302.837 326.049C303.242 322.595 303.184 318.793 302.665 314.427C302.266 311.112 298.453 308.543 293.606 308.328C288.107 308.085 282.188 307.92 275.116 307.81C275.006 301.958 274.842 296.07 274.582 290.095C274.372 285.403 271.621 281.776 268.039 281.473C263.553 281.088 259.621 281.051 256.011 281.363C252.443 281.67 249.712 285.32 249.52 290.053C249.303 295.525 249.169 301.362 249.111 307.847C243.01 307.956 236.866 308.112 230.635 308.36C225.717 308.557 221.914 311.18 221.593 314.593V314.598C221.194 318.871 221.155 322.627 221.482 326.071C221.804 329.478 225.641 332.078 230.587 332.263C236.279 332.468 242.4 332.602 249.237 332.656C249.328 338.362 249.462 344.177 249.626 350.097C249.765 354.858 252.458 358.585 256.034 358.967C257.626 359.136 259.28 359.218 261.02 359.218Z" fill="#F25454"/>
<path d="M1177.45 376.934C1179.49 376.934 1181.66 377.035 1184.01 377.235C1184.93 377.314 1186.33 378.969 1186.45 381.767C1186.74 388.407 1186.92 394.951 1187.03 401.45L1187.07 403.532L1189.25 403.559C1197.24 403.66 1203.76 403.839 1209.76 404.105C1212.69 404.234 1214.46 405.545 1214.56 406.402C1215.05 410.429 1215.11 413.915 1214.73 417.06C1214.63 417.954 1212.81 419.285 1209.79 419.362C1202.81 419.542 1195.98 419.679 1189.28 419.766L1187.1 419.798L1187.06 421.885C1186.95 429.538 1186.77 435.752 1186.49 441.448C1186.36 444.241 1184.98 445.928 1184.08 446.025C1179.85 446.488 1176.2 446.548 1172.91 446.19C1171.95 446.089 1170.57 444.246 1170.49 441.471C1170.31 434.845 1170.16 428.347 1170.07 421.986L1170.04 419.886L1167.83 419.872C1160.15 419.826 1153.38 419.693 1147.13 419.463C1144.28 419.357 1142.41 418.06 1142.33 417.175C1142.03 413.987 1142.07 410.484 1142.44 406.467C1142.53 405.591 1144.26 404.256 1147.19 404.138C1154.13 403.857 1160.97 403.697 1167.75 403.592L1169.95 403.554L1169.96 401.454C1170.01 394.171 1170.15 387.71 1170.39 381.707C1170.5 378.988 1171.86 377.204 1172.79 377.126C1174.27 376.997 1175.81 376.934 1177.45 376.934ZM1177.39 450.711C1179.63 450.711 1182.02 450.569 1184.59 450.285C1188.07 449.909 1190.76 446.272 1190.98 441.65C1191.24 436.431 1191.42 430.791 1191.53 424.026C1197.54 423.939 1203.67 423.81 1209.91 423.651C1214.89 423.521 1218.8 420.954 1219.21 417.542C1219.61 414.066 1219.56 410.259 1219.03 405.911C1218.63 402.596 1214.82 400.032 1209.98 399.817C1204.48 399.574 1198.56 399.409 1191.49 399.298C1191.38 393.447 1191.22 387.558 1190.95 381.589C1190.74 376.893 1187.99 373.265 1184.41 372.962C1179.92 372.577 1175.99 372.544 1172.38 372.852C1168.82 373.159 1166.09 376.809 1165.89 381.542C1165.68 387.014 1165.54 392.851 1165.48 399.336C1159.38 399.445 1153.24 399.601 1147 399.854C1142.09 400.046 1138.28 402.67 1137.96 406.082V406.086C1137.56 410.36 1137.52 414.117 1137.85 417.565C1138.17 420.967 1142.01 423.567 1146.96 423.752C1152.65 423.957 1158.77 424.091 1165.6 424.146C1165.7 429.85 1165.84 435.67 1165.99 441.586C1166.14 446.346 1168.84 450.074 1172.4 450.455C1173.99 450.624 1175.65 450.711 1177.39 450.711Z" fill="#F25454"/>
<path d="M1177.95 641.187V641.183C1168.59 636.313 1158.99 634.162 1149.56 634.776C1140.04 635.313 1131.02 638.872 1122.85 645.127C1122.85 645.127 1124.89 642.563 1127.93 638.716C1130.9 634.814 1135.12 629.796 1139.41 624.843C1143.67 619.858 1147.93 614.878 1151.13 611.14C1152.69 609.246 1154.1 607.752 1155.09 606.706C1156.06 605.656 1156.63 605.055 1156.63 605.055C1166.35 610.113 1176.36 612.393 1185.97 612.017C1190.77 611.823 1195.49 610.961 1200.04 609.429C1204.69 608.022 1209.26 606.059 1213.58 603.367C1204.71 597.718 1195.33 594.737 1185.84 594.549C1176.49 594.507 1167.26 597.438 1158.52 603.023C1158.52 603.023 1163.51 597.672 1168.51 592.319C1171.02 589.664 1173.45 586.926 1175.42 585.005C1177.39 583.093 1178.71 581.818 1178.71 581.818C1189.44 579.442 1198 574.714 1204.87 568.344C1211.9 562.168 1216.9 553.926 1219.84 543.644C1209.12 545.071 1199.61 549.257 1192.13 555.526C1184.85 561.966 1180.02 570.834 1177.69 580.892C1177.69 580.892 1177.03 581.529 1175.88 582.643C1174.72 583.748 1173.07 585.345 1171.23 587.385C1167.49 591.398 1162.49 596.75 1157.5 602.101C1152.4 607.37 1147.73 612.984 1144.17 617.148C1140.61 621.313 1138.24 624.091 1138.24 624.091C1142.69 615.056 1144.13 605.582 1143.33 596.561C1142.52 587.527 1139 578.571 1132.7 570.289C1129.71 575.104 1127.51 579.975 1126.13 584.818C1124.78 589.678 1124.47 594.631 1124.81 599.396C1125.56 608.962 1129.48 618.051 1136.43 626.205C1136.43 626.205 1134.31 628.709 1131.12 632.456C1128.06 636.313 1124 641.449 1119.93 646.59C1111.65 656.766 1104.03 667.396 1104.03 667.396C1105.89 662.718 1107.05 658.018 1107.55 653.353C1108.14 648.763 1108.05 644.192 1107.29 639.697C1105.75 630.718 1101.51 622.032 1094.56 614.226C1089.51 624.183 1087.51 634.102 1088.91 643.545C1090.36 653.024 1094.9 661.874 1102.38 669.625C1102.38 669.625 1100.43 672.257 1097.51 676.201C1094.53 680.109 1090.82 685.488 1087.09 690.853C1083.36 696.218 1079.63 701.58 1076.83 705.601C1074.13 709.693 1072.33 712.416 1072.33 712.416C1078.79 693.413 1074.69 674.798 1059.8 659.903C1055.4 670.047 1054.16 680.076 1055.99 689.367C1057.86 698.682 1062.96 707.344 1070.81 714.723C1070.81 714.723 1069.01 717.447 1066.31 721.533C1063.59 725.601 1060.03 731.077 1056.61 736.621C1053.14 742.147 1049.67 747.668 1047.08 751.814C1044.56 756.001 1042.88 758.794 1042.88 758.794C1048.5 739.551 1043.39 721.103 1027.85 706.964C1019.96 727.504 1024.98 747.049 1041.46 761.161C1041.46 761.161 1038.62 765.911 1034.35 773.033C1030.23 780.233 1024.59 789.758 1019.29 799.462C1013.88 809.106 1008.7 818.865 1004.89 826.221C1001.05 833.562 998.631 838.53 998.631 838.53L999.909 839.093C999.909 839.093 1006.82 825.13 1014.31 811.431C1017.98 804.548 1021.87 797.765 1024.68 792.633C1027.6 787.547 1029.54 784.158 1029.54 784.158C1040.13 787.148 1050.39 787.282 1059.74 784.783C1069.21 782.338 1077.71 777.225 1084.95 769.63C1064.84 762.912 1045.29 767.159 1030.92 781.769C1030.92 781.769 1037.38 770.483 1044.16 759.367C1047.48 753.763 1050.92 748.233 1053.54 744.109C1056.14 739.973 1057.87 737.217 1057.87 737.217C1078.71 743.945 1098.81 739.529 1113.84 725.014C1094.03 717.401 1074.43 720.905 1059.34 734.878C1059.34 734.878 1061.09 732.131 1063.71 728.003C1066.4 723.923 1070 718.479 1073.59 713.035C1077.13 707.564 1080.85 702.204 1083.67 698.2C1086.47 694.183 1088.33 691.505 1088.33 691.505C1098.62 695.379 1108.73 696.324 1118.31 694.696C1127.95 693.11 1136.93 688.876 1144.75 681.988C1135.08 677.728 1125.36 676.205 1116.02 677.417C1106.71 678.645 1097.6 682.489 1089.91 689.23C1089.91 689.23 1091.77 686.556 1094.57 682.539C1097.48 678.594 1101.37 673.335 1105.25 668.079C1112.88 657.472 1121.13 647.305 1121.13 647.305C1131.17 651.698 1141.29 653.257 1150.86 652.121C1160.36 650.919 1169.77 647.502 1177.95 641.187Z" fill="#A4B5B3"/>
<path d="M743.485 702.607C750.412 694.885 758.586 689.614 767.634 686.996C776.725 684.273 786.495 684.538 796.457 687.62C796.457 687.62 793.6 685.909 789.322 683.342C785.081 680.705 779.279 677.444 773.418 674.27C767.581 671.056 761.744 667.84 757.365 665.429C755.196 664.19 753.327 663.269 752.013 662.627C750.706 661.98 749.956 661.609 749.956 661.609C742.749 669.634 734.245 675.151 725.125 678.059C720.557 679.507 715.836 680.301 711.009 680.411C706.139 680.672 701.138 680.383 696.086 679.334C702.278 671.046 709.932 665.08 718.74 661.681C727.456 658.481 737.181 658.087 747.428 660.348C747.428 660.348 740.764 657.041 734.105 653.73C730.764 652.102 727.476 650.364 724.923 649.236C722.359 648.117 720.658 647.369 720.658 647.369C709.744 648.786 699.985 647.268 691.191 643.641C682.311 640.251 674.571 634.239 668 625.627C678.548 623.329 688.989 624.022 698.316 627.347C707.524 630.897 715.345 637.551 721.264 646.159C721.264 646.159 722.114 646.534 723.61 647.186C725.115 647.824 727.244 648.755 729.725 650.038C734.72 652.52 741.385 655.83 748.043 659.141C754.769 662.338 761.226 666.002 766.105 668.689C770.98 671.376 774.235 673.17 774.235 673.17C766.711 666.231 761.841 657.866 759.221 649.162C756.615 640.445 756.566 630.878 759.37 621C763.961 624.486 767.831 628.296 770.927 632.35C773.99 636.44 776.134 640.963 777.586 645.531C780.457 654.729 780.172 664.553 776.711 674.537C776.711 674.537 779.629 676.151 784.009 678.572C788.298 681.144 794.013 684.57 799.73 687.995C811.259 694.7 822.351 702.052 822.351 702.052C818.86 698.31 816.023 694.31 813.826 690.119C811.552 686.029 809.937 681.727 808.98 677.27C807.077 668.35 807.807 658.797 811.388 649.144C819.817 656.742 825.385 665.337 827.59 674.633C829.769 683.987 828.821 693.797 824.72 703.574C824.72 703.574 827.519 705.377 831.716 708.078C835.956 710.719 841.428 714.489 846.913 718.24C852.399 721.987 857.889 725.734 862.004 728.549C866.048 731.452 868.74 733.392 868.74 733.392C855.625 717.819 852.528 699.025 860.898 680.058C868.783 688.051 873.687 697.002 875.433 706.308C877.153 715.649 875.615 725.477 871.028 735.034C871.028 735.034 873.721 736.969 877.764 739.877C881.831 742.757 887.191 746.664 892.461 750.686C897.754 754.675 903.052 758.666 907.024 761.66C910.937 764.723 913.547 766.764 913.547 766.764C901.129 750.677 899.033 731.7 908.288 713.219C923.322 729.742 925.903 749.719 915.759 768.493C915.759 768.493 920.187 771.969 926.826 777.183C933.36 782.517 942.177 789.51 950.745 796.78C959.393 803.961 967.874 811.33 974.177 816.911C980.5 822.474 984.61 826.299 984.61 826.299L983.625 827.261C983.625 827.261 971.966 816.548 959.86 806.281C953.865 801.089 947.706 796.068 943.163 792.226C938.543 788.461 935.466 785.952 935.466 785.952C926.672 792.335 917.133 795.94 907.466 796.765C897.711 797.692 887.85 795.798 878.263 791.148C894.558 778.05 914.412 775.4 933.287 784.186C933.287 784.186 923.042 775.826 912.562 767.731C907.38 763.617 902.101 759.614 898.114 756.652C894.144 753.662 891.494 751.672 891.494 751.672C874.518 765.031 854.091 767.709 834.634 759.238C850.321 745.403 869.947 742.037 889.249 749.984C889.249 749.984 886.596 748.008 882.61 745.04C878.571 742.138 873.186 738.267 867.802 734.397C862.457 730.48 856.976 726.734 852.85 723.946C848.74 721.139 846 719.267 846 719.267C837.826 726.381 828.72 730.687 819.163 732.41C809.557 734.199 799.586 733.287 789.716 729.494C797.163 722.239 805.687 717.516 814.874 715.48C824.028 713.479 833.97 713.984 843.673 717.681C843.673 717.681 840.932 715.81 836.821 713.003C832.634 710.301 827.047 706.702 821.466 703.103C810.379 695.773 798.874 689.069 798.874 689.069C791.125 696.581 782.245 701.465 772.884 703.647C763.547 705.744 753.476 705.744 743.485 702.607Z" fill="#E7E4E2"/>
<path d="M108.885 688.538C118.236 683.669 127.842 681.518 137.274 682.132C146.788 682.668 155.817 686.227 163.981 692.483C163.981 692.483 161.953 689.914 158.904 686.067C155.928 682.168 151.716 677.152 147.418 672.199C143.159 667.214 138.904 662.229 135.711 658.496C134.14 656.602 132.735 655.107 131.751 654.061C130.77 653.011 130.212 652.411 130.212 652.411C120.477 657.468 110.481 659.748 100.871 659.368C96.0584 659.179 91.3469 658.317 86.7882 656.785C82.1494 655.377 77.5869 653.415 73.2497 650.723C82.1248 645.073 91.5045 642.092 100.995 641.9C110.346 641.858 119.577 644.793 128.313 650.374C128.313 650.374 123.317 645.027 118.323 639.675C115.812 637.02 113.39 634.282 111.418 632.361C109.438 630.449 108.12 629.174 108.12 629.174C97.3999 626.793 88.8325 622.07 81.966 615.7C74.9285 609.522 69.9426 601.277 66.9999 591C77.7211 592.426 87.2215 596.613 94.7021 602.882C101.976 609.321 106.818 618.19 109.14 628.247C109.14 628.247 109.794 628.885 110.952 629.999C112.12 631.104 113.769 632.7 115.602 634.736C119.347 638.754 124.341 644.106 129.337 649.457C134.433 654.726 139.101 660.34 142.664 664.504C146.222 668.667 148.591 671.447 148.591 671.447C144.149 662.407 142.712 652.938 143.501 643.917C144.318 634.883 147.832 625.922 154.13 617.644C157.13 622.455 159.327 627.329 160.707 632.169C162.049 637.029 162.371 641.982 162.024 646.747C161.279 656.318 157.356 665.407 150.404 673.56C150.404 673.56 152.529 676.06 155.716 679.812C158.77 683.664 162.837 688.805 166.904 693.946C175.183 704.122 182.813 714.751 182.813 714.751C180.942 710.069 179.779 705.369 179.289 700.709C178.687 696.114 178.78 691.547 179.549 687.053C181.087 678.069 185.332 669.388 192.274 661.582C197.322 671.539 199.327 681.458 197.923 690.9C196.477 700.379 191.933 709.23 184.462 716.981C184.462 716.981 186.404 719.613 189.327 723.556C192.303 727.463 196.015 732.843 199.746 738.209C203.476 743.574 207.207 748.935 210.01 752.957C212.702 757.044 214.5 759.767 214.5 759.767C208.044 740.767 212.149 722.153 227.039 707.258C231.433 717.402 232.679 727.432 230.841 736.723C228.977 746.033 223.875 754.7 216.024 762.079C216.024 762.079 217.822 764.803 220.52 768.889C223.25 772.956 226.803 778.428 230.226 783.976C233.693 789.498 237.159 795.024 239.756 799.17C242.274 803.357 243.953 806.15 243.953 806.15C238.337 786.902 243.453 768.457 258.981 754.315C266.881 774.855 261.857 794.4 245.375 808.515C245.375 808.515 248.217 813.266 252.481 820.389C256.601 827.589 262.241 837.114 267.544 846.813C272.952 856.457 278.135 866.221 281.948 873.572C285.784 880.913 288.202 885.885 288.202 885.885L286.924 886.449C286.924 886.449 280.015 872.485 272.525 858.782C268.851 851.899 264.972 845.121 262.154 839.984C259.236 834.903 257.294 831.514 257.294 831.514C246.697 834.504 236.437 834.637 227.096 832.138C217.625 829.694 209.121 824.58 201.89 816.981C222.001 810.268 241.549 814.514 255.918 829.125C255.918 829.125 249.457 817.839 242.674 806.718C239.356 801.119 235.918 795.588 233.294 791.465C230.692 787.329 228.962 784.568 228.962 784.568C208.12 791.3 188.024 786.884 172.991 772.369C192.808 764.757 212.409 768.256 227.491 782.229C227.491 782.229 225.746 779.482 223.125 775.359C220.433 771.278 216.841 765.834 213.25 760.391C209.711 754.915 205.981 749.559 203.169 745.551C200.371 741.538 198.505 738.859 198.505 738.859C188.217 742.735 178.101 743.675 168.525 742.052C158.881 740.465 149.9 736.232 142.082 729.344C151.751 725.084 161.476 723.561 170.823 724.771C180.125 726.001 189.231 729.84 196.924 736.585C196.924 736.585 195.058 733.907 192.26 729.89C189.351 725.95 185.471 720.691 181.592 715.43C173.962 704.828 165.703 694.656 165.703 694.656C155.658 699.054 145.544 700.613 135.981 699.476C126.477 698.274 117.053 694.858 108.885 688.538Z" fill="#A4B5B3"/>
<path d="M1214.1 292.597C1192.68 297.954 1169.15 297.527 1149.16 288.42C1129.18 279.317 1113.41 260.789 1111.24 239.762C1106.95 198.068 1153.5 161.636 1145.14 120.5C1140.9 99.6714 1121.11 82.6343 1098.96 80.7406C1061.54 77.5438 1031.06 112.361 993.584 114.974C958.041 117.46 926.195 88.2613 917.887 55.2014C914.157 40.3844 914.258 24.9251 916.951 9.95663C917.248 8.2872 917.584 6.63656 917.935 5H1276.22V256.73C1259.13 273.726 1238.01 286.617 1214.1 292.597Z" fill="#F1F1F0"/>
<path d="M1167.22 42.2535C1167.36 40.7085 1169.37 39.4653 1171.88 39.3643C1176.57 39.1765 1181.19 39.0661 1185.79 38.9933C1185.81 34.3384 1185.9 29.8572 1186.08 25.6156C1186.17 23.2218 1187.45 21.273 1189.07 21.1356C1191.58 20.9196 1194.21 20.9748 1196.92 21.2084C1198.54 21.3457 1199.85 23.2535 1199.95 25.6485C1200.15 30.1472 1200.27 34.572 1200.34 38.9745C1205.03 39.0344 1209.68 39.1401 1214.24 39.342C1216.72 39.4512 1218.73 40.6487 1218.92 42.176C1219.24 44.8222 1219.31 47.344 1219.03 49.6967C1218.85 51.2558 1216.76 52.4661 1214.23 52.5354C1209.51 52.654 1204.89 52.7467 1200.36 52.8101C1200.3 57.2772 1200.19 61.7114 1199.98 66.0634C1199.86 68.4302 1198.61 70.3473 1197.01 70.5211C1194.23 70.8287 1191.59 70.8968 1189.12 70.6361C1187.49 70.4612 1186.21 68.4713 1186.15 66.0505C1186.02 61.5693 1185.92 57.1809 1185.86 52.8794C1180.98 52.8477 1176.28 52.7643 1171.84 52.6035C1169.33 52.5119 1167.29 51.2874 1167.14 49.7425C1166.91 47.3534 1166.98 44.8398 1167.22 42.2535Z" fill="#F25454"/>
</g>
<defs>
<clipPath id="clip0_149_24">
<rect width="1280" height="832" fill="white"/>
</clipPath>
</defs>
</svg>
