<svg width="1280" height="832" viewBox="0 0 1280 832" fill="none" xmlns="http://www.w3.org/2000/svg">
<g clip-path="url(#clip0_75_31)">
<path d="M42.2669 792.336C42.2669 823.571 171.674 848.888 331.313 848.888C490.952 848.888 620.364 823.571 620.364 792.336C620.364 761.102 490.952 735.784 331.313 735.784C171.674 735.784 42.2669 761.102 42.2669 792.336Z" fill="#DBDCD9"/>
<path d="M1350 853.525V645.979C1347.6 640.708 1344.9 635.444 1341.81 630.186C1326.74 604.558 1306.02 597.114 1276.01 602.767C1255.32 606.66 1235.88 617.596 1223.32 634.09C1205.57 657.385 1201.93 687.58 1193.71 715.391C1185.5 743.202 1168.58 772.573 1139.45 779.336C1114.53 785.121 1089.35 772.38 1067.56 759.333C1045.78 746.291 1022.28 731.917 996.746 734.147C973.559 736.17 953.73 751.991 940.896 770.744C924.306 794.993 917.899 824.53 920.525 853.525H1350Z" fill="#F1F1F0"/>
<path d="M1190.46 256.945C1190.61 255.36 1192.64 254.085 1195.18 253.981C1199.94 253.789 1204.63 253.676 1209.28 253.601C1209.31 248.827 1209.4 244.231 1209.58 239.881C1209.67 237.426 1210.97 235.427 1212.61 235.286C1215.15 235.065 1217.82 235.121 1220.57 235.361C1222.21 235.502 1223.53 237.459 1223.64 239.915C1223.84 244.529 1223.95 249.067 1224.03 253.582C1228.78 253.643 1233.49 253.752 1238.12 253.959C1240.63 254.071 1242.67 255.299 1242.86 256.865C1243.18 259.579 1243.26 262.165 1242.98 264.578C1242.79 266.177 1240.68 267.419 1238.1 267.49C1233.32 267.611 1228.64 267.706 1224.05 267.771C1223.99 272.353 1223.88 276.9 1223.66 281.364C1223.55 283.791 1222.27 285.757 1220.65 285.935C1217.84 286.251 1215.16 286.321 1212.66 286.053C1211 285.874 1209.71 283.833 1209.65 281.35C1209.52 276.755 1209.42 272.254 1209.35 267.842C1204.41 267.81 1199.65 267.724 1195.14 267.559C1192.6 267.466 1190.54 266.21 1190.38 264.625C1190.16 262.175 1190.22 259.597 1190.46 256.945Z" fill="#F25454"/>
<path d="M7.23003 256.902C7.36599 255.304 9.42283 254.01 11.9898 253.907C16.8093 253.709 21.544 253.596 26.2513 253.52C26.285 248.691 26.3735 244.043 26.5481 239.646C26.6454 237.162 27.9563 235.146 29.6177 235C32.1859 234.774 34.8951 234.835 37.6616 235.075C39.318 235.215 40.6676 237.201 40.7662 239.679C40.9794 244.344 41.0917 248.94 41.1653 253.502C45.9736 253.563 50.7395 253.671 55.4169 253.883C57.9601 253.996 60.0207 255.237 60.2103 256.822C60.5321 259.565 60.6156 262.185 60.3275 264.62C60.1429 266.239 58.0038 267.499 55.402 267.564C50.5687 267.692 45.8277 267.786 41.189 267.852C41.1316 272.489 41.0193 277.085 40.7898 281.6C40.6776 284.055 39.3966 286.039 37.7501 286.222C34.9038 286.537 32.1997 286.613 29.6664 286.34C27.995 286.162 26.6854 284.097 26.6218 281.585C26.4846 276.939 26.3972 272.38 26.3236 267.922C21.3207 267.894 16.5063 267.805 11.9561 267.635C9.38295 267.541 7.28873 266.271 7.14279 264.667C6.91828 262.189 6.96685 259.587 7.23003 256.902Z" fill="#F25454"/>
<path d="M581.844 796.616C581.971 795.22 583.769 794.09 586.01 794.001C590.22 793.827 594.362 793.728 598.473 793.663C598.503 789.444 598.58 785.38 598.731 781.537C598.82 779.365 599.97 777.601 601.422 777.473C603.663 777.281 606.02 777.332 608.451 777.54C609.9 777.667 611.068 779.397 611.161 781.566C611.341 785.644 611.444 789.659 611.512 793.644C615.712 793.7 619.878 793.794 623.96 793.977C626.182 794.076 627.985 795.163 628.15 796.545C628.433 798.944 628.502 801.235 628.252 803.365C628.093 804.776 626.222 805.877 623.95 805.933C619.726 806.046 615.585 806.131 611.531 806.187C611.472 810.236 611.375 814.253 611.186 818.2C611.083 820.344 609.957 822.084 608.525 822.239C606.04 822.518 603.672 822.583 601.465 822.343C599.999 822.188 598.858 820.382 598.795 818.19C598.683 814.127 598.595 810.147 598.537 806.249C594.166 806.22 589.962 806.145 585.981 805.999C583.73 805.914 581.903 804.805 581.777 803.407C581.572 801.24 581.626 798.963 581.844 796.616Z" fill="#C61E25"/>
<path d="M274.62 287.62C276.695 287.62 278.898 287.723 281.275 287.926C282.211 288.01 283.629 289.708 283.75 292.577C284.047 299.387 284.223 306.098 284.335 312.759L284.369 314.898L286.581 314.926C294.684 315.03 301.296 315.209 307.376 315.486C310.339 315.619 312.131 316.963 312.233 317.842C312.731 321.991 312.788 325.565 312.414 328.773C312.307 329.709 310.347 331.054 307.4 331.129C300.325 331.318 293.401 331.454 286.61 331.553L284.398 331.58L284.364 333.721C284.256 341.509 284.077 347.882 283.789 353.785C283.653 356.65 282.254 358.375 281.348 358.479C277.061 358.949 273.367 359.011 270.02 358.648C269.055 358.545 267.657 356.654 267.579 353.808C267.394 347.013 267.243 340.348 267.146 333.825L267.116 331.671L264.879 331.656C257.099 331.609 250.234 331.472 243.905 331.237C241.015 331.129 239.12 329.798 239.038 328.891C238.73 325.622 238.77 322.029 239.149 317.909C239.238 317.01 240.996 315.641 243.964 315.519C250.998 315.232 257.922 315.068 264.802 314.955L267.029 314.921L267.039 312.767C267.087 305.299 267.223 298.672 267.471 292.515C267.584 289.727 268.958 287.897 269.899 287.817C271.399 287.685 272.968 287.62 274.62 287.62ZM274.566 363.28C276.841 363.28 279.258 363.139 281.864 362.848C285.388 362.458 288.11 358.733 288.34 353.992C288.603 348.587 288.783 342.803 288.89 335.917C294.99 335.828 301.202 335.696 307.527 335.532C312.575 335.4 316.535 332.766 316.944 329.263C317.355 325.72 317.296 321.822 316.77 317.344C316.366 313.944 312.501 311.309 307.589 311.089C302.017 310.84 296.018 310.67 288.851 310.557C288.739 304.556 288.573 298.516 288.31 292.389C288.097 287.577 285.309 283.857 281.679 283.547C277.133 283.152 273.148 283.113 269.49 283.433C265.874 283.749 263.106 287.492 262.911 292.346C262.692 297.958 262.556 303.944 262.497 310.595C256.314 310.707 250.088 310.867 243.773 311.121C238.789 311.324 234.934 314.014 234.609 317.514V317.518C234.205 321.901 234.165 325.753 234.497 329.286C234.823 332.78 238.711 335.447 243.724 335.636C249.493 335.846 255.696 335.984 262.624 336.039C262.717 341.891 262.853 347.854 263.019 353.926C263.159 358.808 265.889 362.631 269.513 363.023C271.126 363.196 272.802 363.28 274.566 363.28Z" fill="#F25454"/>
<path d="M1203.3 381.449C1205.37 381.449 1207.57 381.553 1209.95 381.759C1210.88 381.839 1212.3 383.537 1212.43 386.406C1212.72 393.216 1212.9 399.928 1213.01 406.593L1213.05 408.728L1215.26 408.756C1223.36 408.859 1229.97 409.043 1236.05 409.316C1239.02 409.448 1240.81 410.793 1240.91 411.672C1241.41 415.802 1241.46 419.376 1241.09 422.602C1240.98 423.52 1239.14 424.884 1236.08 424.963C1229.01 425.147 1222.08 425.288 1215.3 425.377L1213.08 425.41L1213.04 427.551C1212.93 435.4 1212.75 441.773 1212.46 447.615C1212.33 450.479 1210.93 452.209 1210.02 452.308C1205.74 452.784 1202.04 452.845 1198.7 452.478C1197.73 452.374 1196.33 450.484 1196.25 447.638C1196.07 440.842 1195.92 434.178 1195.82 427.654L1195.79 425.5L1193.55 425.486C1185.77 425.439 1178.91 425.303 1172.58 425.067C1169.69 424.958 1167.8 423.628 1167.71 422.72C1167.41 419.451 1167.44 415.858 1167.82 411.738C1167.91 410.84 1169.67 409.471 1172.64 409.349C1179.67 409.061 1186.6 408.898 1193.48 408.789L1195.7 408.751L1195.71 406.597C1195.77 399.128 1195.9 392.501 1196.15 386.345C1196.26 383.556 1197.64 381.726 1198.58 381.647C1200.08 381.514 1201.64 381.449 1203.3 381.449ZM1203.24 457.115C1205.52 457.115 1207.93 456.969 1210.54 456.677C1214.07 456.292 1216.79 452.562 1217.02 447.822C1217.28 442.469 1217.46 436.684 1217.57 429.747C1223.67 429.658 1229.88 429.525 1236.2 429.362C1241.25 429.229 1245.21 426.596 1245.62 423.097C1246.03 419.532 1245.98 415.627 1245.44 411.169C1245.04 407.768 1241.18 405.139 1236.26 404.918C1230.7 404.669 1224.69 404.499 1217.53 404.386C1217.42 398.385 1217.25 392.346 1216.99 386.223C1216.77 381.407 1213.98 377.687 1210.35 377.376C1205.81 376.981 1201.82 376.947 1198.17 377.263C1194.55 377.578 1191.79 381.322 1191.59 386.175C1191.37 391.787 1191.23 397.774 1191.17 404.425C1184.99 404.537 1178.76 404.697 1172.45 404.956C1167.46 405.153 1163.61 407.844 1163.28 411.343V411.348C1162.88 415.731 1162.84 419.584 1163.17 423.12C1163.5 426.609 1167.39 429.276 1172.4 429.465C1178.17 429.676 1184.37 429.813 1191.3 429.87C1191.39 435.72 1191.53 441.688 1191.69 447.756C1191.84 452.638 1194.57 456.461 1198.19 456.852C1199.8 457.025 1201.48 457.115 1203.24 457.115Z" fill="#F25454"/>
<path d="M1203.81 652.464V652.459C1194.33 647.465 1184.6 645.259 1175.04 645.888C1165.39 646.439 1156.25 650.089 1147.97 656.504C1147.97 656.504 1150.03 653.875 1153.12 649.929C1156.13 645.927 1160.4 640.781 1164.76 635.701C1169.07 630.589 1173.38 625.481 1176.62 621.648C1178.21 619.705 1179.64 618.173 1180.64 617.1C1181.63 616.024 1182.2 615.407 1182.2 615.407C1192.06 620.594 1202.19 622.932 1211.93 622.547C1216.81 622.348 1221.58 621.465 1226.19 619.893C1230.91 618.45 1235.54 616.436 1239.92 613.676C1230.93 607.882 1221.43 604.825 1211.8 604.632C1202.33 604.589 1192.98 607.595 1184.12 613.323C1184.12 613.323 1189.18 607.835 1194.24 602.346C1196.79 599.622 1199.25 596.814 1201.24 594.845C1203.25 592.883 1204.58 591.576 1204.58 591.576C1215.45 589.139 1224.12 584.29 1231.09 577.757C1238.22 571.422 1243.28 562.97 1246.26 552.425C1235.39 553.888 1225.76 558.182 1218.18 564.611C1210.8 571.215 1205.91 580.311 1203.55 590.626C1203.55 590.626 1202.88 591.279 1201.71 592.422C1200.53 593.555 1198.86 595.193 1197 597.285C1193.21 601.401 1188.14 606.89 1183.08 612.378C1177.92 617.781 1173.18 623.539 1169.58 627.81C1165.97 632.081 1163.57 634.93 1163.57 634.93C1168.07 625.664 1169.53 615.948 1168.73 606.696C1167.9 597.431 1164.34 588.245 1157.95 579.752C1154.92 584.69 1152.69 589.685 1151.29 594.652C1149.93 599.637 1149.61 604.716 1149.95 609.604C1150.71 619.414 1154.68 628.736 1161.74 637.098C1161.74 637.098 1159.58 639.666 1156.35 643.509C1153.25 647.464 1149.13 652.732 1145.01 658.005C1136.62 668.441 1128.89 679.343 1128.89 679.343C1130.78 674.546 1131.96 669.725 1132.46 664.941C1133.07 660.233 1132.97 655.545 1132.2 650.936C1130.64 641.726 1126.34 632.819 1119.3 624.813C1114.18 635.024 1112.16 645.197 1113.57 654.881C1115.04 664.603 1119.64 673.68 1127.22 681.629C1127.22 681.629 1125.25 684.328 1122.29 688.373C1119.27 692.381 1115.51 697.898 1111.73 703.4C1107.95 708.903 1104.16 714.402 1101.33 718.526C1098.6 722.722 1096.77 725.515 1096.77 725.515C1103.32 706.025 1099.16 686.934 1084.07 671.658C1079.62 682.061 1078.36 692.347 1080.21 701.876C1082.11 711.429 1087.28 720.313 1095.23 727.881C1095.23 727.881 1093.41 730.674 1090.67 734.865C1087.91 739.037 1084.3 744.653 1080.84 750.339C1077.32 756.006 1073.81 761.669 1071.18 765.921C1068.63 770.215 1066.93 773.079 1066.93 773.079C1072.62 753.344 1067.44 734.424 1051.7 719.923C1043.7 740.989 1048.79 761.034 1065.48 775.507C1065.48 775.507 1062.6 780.378 1058.28 787.683C1054.11 795.067 1048.39 804.836 1043.02 814.788C1037.54 824.678 1032.29 834.687 1028.42 842.232C1024.54 849.761 1022.08 854.855 1022.08 854.855L1023.38 855.433C1023.38 855.433 1030.38 841.112 1037.97 827.063C1041.69 820.004 1045.63 813.047 1048.48 807.784C1051.44 802.568 1053.41 799.092 1053.41 799.092C1064.14 802.159 1074.54 802.296 1084.01 799.733C1093.61 797.226 1102.23 791.981 1109.56 784.192C1089.18 777.303 1069.37 781.658 1054.8 796.642C1054.8 796.642 1061.35 785.068 1068.23 773.667C1071.58 767.92 1075.07 762.248 1077.73 758.019C1080.36 753.777 1082.12 750.95 1082.12 750.95C1103.24 757.851 1123.61 753.321 1138.84 738.435C1118.76 730.627 1098.9 734.221 1083.61 748.552C1083.61 748.552 1085.38 745.734 1088.04 741.501C1090.77 737.316 1094.41 731.733 1098.04 726.149C1101.63 720.539 1105.41 715.041 1108.26 710.935C1111.1 706.815 1112.99 704.069 1112.99 704.069C1123.41 708.042 1133.66 709.011 1143.37 707.341C1153.14 705.715 1162.24 701.373 1170.16 694.309C1160.37 689.939 1150.51 688.378 1141.04 689.62C1131.61 690.88 1122.38 694.822 1114.59 701.735C1114.59 701.735 1116.48 698.994 1119.31 694.873C1122.26 690.828 1126.2 685.434 1130.13 680.043C1137.86 669.165 1146.23 658.738 1146.23 658.738C1156.4 663.243 1166.66 664.842 1176.35 663.677C1185.98 662.444 1195.52 658.94 1203.81 652.464Z" fill="#A4B5B3"/>
<path d="M763.51 715.455C770.53 707.535 778.814 702.13 787.984 699.445C797.196 696.651 807.097 696.924 817.193 700.084C817.193 700.084 814.298 698.33 809.962 695.697C805.664 692.992 799.784 689.648 793.845 686.393C787.93 683.096 782.014 679.798 777.576 677.325C775.379 676.055 773.484 675.11 772.153 674.451C770.828 673.788 770.067 673.407 770.067 673.407C762.765 681.638 754.146 687.296 744.903 690.278C740.275 691.764 735.49 692.578 730.598 692.691C725.662 692.959 720.595 692.662 715.475 691.586C721.75 683.087 729.507 676.968 738.432 673.482C747.266 670.2 757.122 669.795 767.506 672.114C767.506 672.114 760.753 668.723 754.004 665.327C750.618 663.657 747.286 661.875 744.699 660.718C742.101 659.571 740.377 658.804 740.377 658.804C729.316 660.257 719.426 658.7 710.514 654.98C701.515 651.504 693.671 645.338 687.011 636.505C697.701 634.149 708.283 634.859 717.735 638.269C727.066 641.91 734.992 648.734 740.99 657.562C740.99 657.562 741.852 657.948 743.368 658.616C744.893 659.27 747.051 660.224 749.566 661.541C754.627 664.086 761.381 667.481 768.129 670.877C774.946 674.155 781.489 677.913 786.433 680.669C791.374 683.425 794.673 685.265 794.673 685.265C787.048 678.148 782.113 669.569 779.457 660.642C776.817 651.702 776.767 641.891 779.608 631.76C784.26 635.335 788.183 639.243 791.32 643.4C794.425 647.595 796.597 652.233 798.069 656.918C800.978 666.352 800.69 676.427 797.182 686.666C797.182 686.666 800.14 688.322 804.578 690.805C808.925 693.443 814.717 696.956 820.511 700.469C832.194 707.346 843.435 714.885 843.435 714.885C839.897 711.048 837.022 706.946 834.796 702.648C832.491 698.453 830.855 694.041 829.884 689.469C827.956 680.321 828.695 670.524 832.325 660.624C840.867 668.417 846.509 677.231 848.745 686.765C850.952 696.359 849.992 706.42 845.836 716.447C845.836 716.447 848.672 718.295 852.925 721.066C857.222 723.775 862.768 727.641 868.327 731.488C873.886 735.331 879.451 739.173 883.62 742.06C887.719 745.038 890.447 747.027 890.447 747.027C877.155 731.056 874.017 711.781 882.5 692.329C890.49 700.526 895.461 709.707 897.23 719.25C898.973 728.83 897.414 738.909 892.765 748.711C892.765 748.711 895.494 750.696 899.592 753.678C903.714 756.632 909.146 760.639 914.487 764.764C919.851 768.855 925.22 772.948 929.245 776.019C933.21 779.16 935.856 781.253 935.856 781.253C923.271 764.754 921.146 745.292 930.526 726.338C945.762 743.284 948.377 763.772 938.097 783.027C938.097 783.027 942.585 786.592 949.313 791.939C955.935 797.409 964.87 804.581 973.553 812.037C982.318 819.402 990.913 826.959 997.3 832.683C1003.71 838.388 1007.87 842.311 1007.87 842.311L1006.87 843.298C1006.87 843.298 995.059 832.311 982.79 821.781C976.715 816.457 970.473 811.307 965.87 807.366C961.187 803.505 958.069 800.932 958.069 800.932C949.157 807.478 939.49 811.176 929.693 812.022C919.807 812.972 909.814 811.03 900.098 806.261C916.611 792.827 936.733 790.11 955.861 799.121C955.861 799.121 945.479 790.547 934.858 782.245C929.606 778.026 924.256 773.92 920.216 770.883C916.192 767.816 913.507 765.775 913.507 765.775C896.303 779.476 875.601 782.222 855.883 773.535C871.781 759.346 891.67 755.894 911.232 764.044C911.232 764.044 908.543 762.017 904.504 758.974C900.41 755.997 894.953 752.027 889.496 748.058C884.079 744.041 878.525 740.199 874.344 737.339C870.178 734.46 867.402 732.541 867.402 732.541C859.118 739.837 849.89 744.253 840.204 746.021C830.469 747.855 820.365 746.92 810.361 743.03C817.909 735.589 826.548 730.745 835.857 728.657C845.135 726.605 855.211 727.123 865.043 730.915C865.043 730.915 862.265 728.995 858.099 726.117C853.856 723.346 848.194 719.655 842.538 715.963C831.302 708.446 819.643 701.57 819.643 701.57C811.79 709.275 802.79 714.283 793.303 716.522C783.841 718.672 773.635 718.672 763.51 715.455Z" fill="#E7E4E2"/>
<path d="M120.388 701.026C129.864 696.032 139.599 693.826 149.158 694.456C158.8 695.006 167.95 698.655 176.223 705.072C176.223 705.072 174.168 702.437 171.078 698.492C168.062 694.493 163.794 689.348 159.439 684.268C155.122 679.156 150.81 674.044 147.574 670.215C145.982 668.273 144.558 666.74 143.56 665.667C142.566 664.59 142.001 663.974 142.001 663.974C132.135 669.161 122.005 671.499 112.266 671.109C107.389 670.916 102.614 670.032 97.9942 668.461C93.2931 667.017 88.6694 665.004 84.2739 662.243C93.2681 656.449 102.774 653.392 112.392 653.194C121.869 653.151 131.224 656.161 140.077 661.885C140.077 661.885 135.014 656.402 129.953 650.913C127.408 648.189 124.953 645.382 122.955 643.412C120.948 641.45 119.612 640.143 119.612 640.143C108.748 637.701 100.066 632.857 93.1073 626.324C85.9752 619.988 80.9224 611.532 77.9401 600.992C88.8053 602.455 98.4333 606.749 106.014 613.178C113.386 619.783 118.293 628.878 120.646 639.193C120.646 639.193 121.309 639.847 122.482 640.989C123.666 642.122 125.338 643.76 127.195 645.848C130.99 649.968 136.052 655.457 141.115 660.945C146.278 666.349 151.009 672.106 154.62 676.377C158.226 680.647 160.627 683.498 160.627 683.498C156.126 674.227 154.669 664.515 155.468 655.263C156.297 645.998 159.858 636.808 166.24 628.318C169.281 633.252 171.507 638.251 172.906 643.214C174.265 648.199 174.592 653.279 174.24 658.166C173.486 667.981 169.509 677.303 162.465 685.665C162.465 685.665 164.617 688.228 167.848 692.076C170.942 696.027 175.065 701.299 179.186 706.572C187.576 717.008 195.308 727.91 195.308 727.91C193.413 723.108 192.234 718.287 191.737 713.508C191.127 708.796 191.221 704.112 192.001 699.503C193.56 690.288 197.862 681.386 204.896 673.38C210.013 683.592 212.045 693.764 210.621 703.449C209.156 713.17 204.551 722.247 196.98 730.196C196.98 730.196 198.948 732.896 201.91 736.94C204.926 740.947 208.688 746.464 212.469 751.968C216.249 757.47 220.03 762.968 222.871 767.093C225.599 771.284 227.421 774.077 227.421 774.077C220.878 754.591 225.039 735.501 240.129 720.224C244.582 730.628 245.844 740.915 243.982 750.443C242.092 759.991 236.922 768.881 228.965 776.448C228.965 776.448 230.788 779.241 233.522 783.433C236.288 787.604 239.889 793.215 243.358 798.906C246.872 804.568 250.384 810.236 253.016 814.488C255.568 818.782 257.269 821.646 257.269 821.646C251.578 801.906 256.763 782.99 272.5 768.486C280.505 789.552 275.414 809.596 258.711 824.073C258.711 824.073 261.591 828.945 265.912 836.25C270.088 843.634 275.803 853.403 281.177 863.351C286.658 873.241 291.91 883.254 295.775 890.794C299.662 898.323 302.113 903.422 302.113 903.422L300.817 904C300.817 904 293.816 889.679 286.225 875.626C282.502 868.566 278.571 861.614 275.715 856.347C272.758 851.136 270.79 847.66 270.79 847.66C260.051 850.726 249.653 850.862 240.186 848.3C230.588 845.793 221.969 840.549 214.642 832.755C235.022 825.87 254.833 830.225 269.395 845.209C269.395 845.209 262.847 833.635 255.973 822.229C252.61 816.487 249.127 810.815 246.468 806.586C243.831 802.344 242.077 799.513 242.077 799.513C220.955 806.417 200.589 801.888 185.355 787.001C205.438 779.194 225.302 782.784 240.587 797.114C240.587 797.114 238.818 794.297 236.162 790.068C233.433 785.883 229.794 780.3 226.154 774.717C222.568 769.101 218.787 763.608 215.937 759.498C213.102 755.382 211.211 752.635 211.211 752.635C200.785 756.609 190.534 757.574 180.829 755.908C171.055 754.282 161.953 749.94 154.03 742.876C163.829 738.507 173.685 736.945 183.157 738.186C192.584 739.447 201.813 743.384 209.609 750.302C209.609 750.302 207.718 747.556 204.883 743.436C201.934 739.395 198.003 734.001 194.071 728.606C186.339 717.732 177.968 707.3 177.968 707.3C167.789 711.811 157.539 713.41 147.847 712.244C138.216 711.011 128.665 707.507 120.388 701.026Z" fill="#A4B5B3"/>
<path d="M1240.45 294.955C1218.74 300.449 1194.89 300.011 1174.64 290.671C1154.38 281.335 1138.4 262.333 1136.21 240.769C1131.85 198.007 1179.03 160.644 1170.56 118.455C1166.26 97.0935 1146.21 79.6205 1123.75 77.6784C1085.83 74.3998 1054.94 110.108 1016.97 112.788C980.947 115.337 948.673 85.3914 940.254 51.4858C936.474 36.2896 936.576 20.4349 939.305 5.08344C939.607 3.3713 939.947 1.67843 940.303 0H1303.4V258.171C1286.08 275.601 1264.68 288.822 1240.45 294.955Z" fill="#F1F1F0"/>
<path d="M1192.93 38.2066C1193.08 36.6221 1195.11 35.347 1197.65 35.2435C1202.41 35.0508 1207.1 34.9377 1211.75 34.863C1211.78 30.089 1211.87 25.4932 1212.05 21.143C1212.14 18.688 1213.44 16.6893 1215.08 16.5484C1217.62 16.3269 1220.29 16.3835 1223.04 16.6231C1224.68 16.7639 1226 18.7205 1226.11 21.1767C1226.31 25.7906 1226.42 30.3286 1226.5 34.8437C1231.25 34.9052 1235.97 35.0135 1240.59 35.2206C1243.1 35.3326 1245.14 36.5607 1245.33 38.1272C1245.65 40.8411 1245.73 43.4273 1245.45 45.8402C1245.26 47.4392 1243.15 48.6805 1240.57 48.7516C1235.79 48.8732 1231.11 48.9683 1226.52 49.0333C1226.46 53.6147 1226.35 58.1623 1226.13 62.6257C1226.02 65.053 1224.74 67.0192 1223.12 67.1974C1220.31 67.5128 1217.63 67.5827 1215.13 67.3154C1213.47 67.136 1212.18 65.0951 1212.12 62.6124C1211.99 58.0166 1211.89 53.5159 1211.82 49.1043C1206.88 49.0718 1202.12 48.9864 1197.61 48.8214C1195.07 48.7275 1193.01 47.4717 1192.85 45.8872C1192.63 43.437 1192.69 40.8591 1192.93 38.2066Z" fill="#F25454"/>
</g>
<defs>
<clipPath id="clip0_75_31">
<rect width="1280" height="832" fill="white"/>
</clipPath>
</defs>
</svg>
